<?xml version="1.0" encoding="utf-8" standalone="no"?>
<!DOCTYPE svg PUBLIC "-//W3C//DTD SVG 1.1//EN"
  "http://www.w3.org/Graphics/SVG/1.1/DTD/svg11.dtd">
<svg xmlns:xlink="http://www.w3.org/1999/xlink" width="712.560938pt" height="423.034375pt" viewBox="0 0 712.560938 423.034375" xmlns="http://www.w3.org/2000/svg" version="1.1">
 <metadata>
  <rdf:RDF xmlns:dc="http://purl.org/dc/elements/1.1/" xmlns:cc="http://creativecommons.org/ns#" xmlns:rdf="http://www.w3.org/1999/02/22-rdf-syntax-ns#">
   <cc:Work>
    <dc:type rdf:resource="http://purl.org/dc/dcmitype/StillImage"/>
    <dc:date>2026-07-08T20:55:29.254574</dc:date>
    <dc:format>image/svg+xml</dc:format>
    <dc:creator>
     <cc:Agent>
      <dc:title>Matplotlib v3.10.8, https://matplotlib.org/</dc:title>
     </cc:Agent>
    </dc:creator>
   </cc:Work>
  </rdf:RDF>
 </metadata>
 <defs>
  <style type="text/css">*{stroke-linejoin: round; stroke-linecap: butt}</style>
 </defs>
 <g id="figure_1">
  <g id="patch_1">
   <path d="M 0 423.034375 
L 712.560938 423.034375 
L 712.560938 0 
L 0 0 
z
" style="fill: #ffffff"/>
  </g>
  <g id="axes_1">
   <g id="patch_2">
    <path d="M 52.160938 385.478125 
L 705.360938 385.478125 
L 705.360938 22.318125 
L 52.160938 22.318125 
z
" style="fill: #ffffff"/>
   </g>
   <g id="matplotlib.axis_1">
    <g id="xtick_1">
     <g id="line2d_1">
      <defs>
       <path id="m26611d492d" d="M 0 0 
L 0 3.5 
" style="stroke: #000000; stroke-width: 0.8"/>
      </defs>
      <g>
       <use xlink:href="#m26611d492d" x="117.480938" y="385.478125" style="stroke: #000000; stroke-width: 0.8"/>
      </g>
     </g>
     <g id="text_1">
      <!-- 300 -->
      <g transform="translate(107.937188 400.076562) scale(0.1 -0.1)">
       <defs>
        <path id="DejaVuSans-33" d="M 2597 2516 
Q 3050 2419 3304 2112 
Q 3559 1806 3559 1356 
Q 3559 666 3084 287 
Q 2609 -91 1734 -91 
Q 1441 -91 1130 -33 
Q 819 25 488 141 
L 488 750 
Q 750 597 1062 519 
Q 1375 441 1716 441 
Q 2309 441 2620 675 
Q 2931 909 2931 1356 
Q 2931 1769 2642 2001 
Q 2353 2234 1838 2234 
L 1294 2234 
L 1294 2753 
L 1863 2753 
Q 2328 2753 2575 2939 
Q 2822 3125 2822 3475 
Q 2822 3834 2567 4026 
Q 2313 4219 1838 4219 
Q 1578 4219 1281 4162 
Q 984 4106 628 3988 
L 628 4550 
Q 988 4650 1302 4700 
Q 1616 4750 1894 4750 
Q 2613 4750 3031 4423 
Q 3450 4097 3450 3541 
Q 3450 3153 3228 2886 
Q 3006 2619 2597 2516 
z
" transform="scale(0.015625)"/>
        <path id="DejaVuSans-30" d="M 2034 4250 
Q 1547 4250 1301 3770 
Q 1056 3291 1056 2328 
Q 1056 1369 1301 889 
Q 1547 409 2034 409 
Q 2525 409 2770 889 
Q 3016 1369 3016 2328 
Q 3016 3291 2770 3770 
Q 2525 4250 2034 4250 
z
M 2034 4750 
Q 2819 4750 3233 4129 
Q 3647 3509 3647 2328 
Q 3647 1150 3233 529 
Q 2819 -91 2034 -91 
Q 1250 -91 836 529 
Q 422 1150 422 2328 
Q 422 3509 836 4129 
Q 1250 4750 2034 4750 
z
" transform="scale(0.015625)"/>
       </defs>
       <use xlink:href="#DejaVuSans-33"/>
       <use xlink:href="#DejaVuSans-30" transform="translate(63.623047 0)"/>
       <use xlink:href="#DejaVuSans-30" transform="translate(127.246094 0)"/>
      </g>
     </g>
    </g>
    <g id="xtick_2">
     <g id="line2d_2">
      <g>
       <use xlink:href="#m26611d492d" x="248.120938" y="385.478125" style="stroke: #000000; stroke-width: 0.8"/>
      </g>
     </g>
     <g id="text_2">
      <!-- 400 -->
      <g transform="translate(238.577188 400.076562) scale(0.1 -0.1)">
       <defs>
        <path id="DejaVuSans-34" d="M 2419 4116 
L 825 1625 
L 2419 1625 
L 2419 4116 
z
M 2253 4666 
L 3047 4666 
L 3047 1625 
L 3713 1625 
L 3713 1100 
L 3047 1100 
L 3047 0 
L 2419 0 
L 2419 1100 
L 313 1100 
L 313 1709 
L 2253 4666 
z
" transform="scale(0.015625)"/>
       </defs>
       <use xlink:href="#DejaVuSans-34"/>
       <use xlink:href="#DejaVuSans-30" transform="translate(63.623047 0)"/>
       <use xlink:href="#DejaVuSans-30" transform="translate(127.246094 0)"/>
      </g>
     </g>
    </g>
    <g id="xtick_3">
     <g id="line2d_3">
      <g>
       <use xlink:href="#m26611d492d" x="378.760938" y="385.478125" style="stroke: #000000; stroke-width: 0.8"/>
      </g>
     </g>
     <g id="text_3">
      <!-- 500 -->
      <g transform="translate(369.217188 400.076562) scale(0.1 -0.1)">
       <defs>
        <path id="DejaVuSans-35" d="M 691 4666 
L 3169 4666 
L 3169 4134 
L 1269 4134 
L 1269 2991 
Q 1406 3038 1543 3061 
Q 1681 3084 1819 3084 
Q 2600 3084 3056 2656 
Q 3513 2228 3513 1497 
Q 3513 744 3044 326 
Q 2575 -91 1722 -91 
Q 1428 -91 1123 -41 
Q 819 9 494 109 
L 494 744 
Q 775 591 1075 516 
Q 1375 441 1709 441 
Q 2250 441 2565 725 
Q 2881 1009 2881 1497 
Q 2881 1984 2565 2268 
Q 2250 2553 1709 2553 
Q 1456 2553 1204 2497 
Q 953 2441 691 2322 
L 691 4666 
z
" transform="scale(0.015625)"/>
       </defs>
       <use xlink:href="#DejaVuSans-35"/>
       <use xlink:href="#DejaVuSans-30" transform="translate(63.623047 0)"/>
       <use xlink:href="#DejaVuSans-30" transform="translate(127.246094 0)"/>
      </g>
     </g>
    </g>
    <g id="xtick_4">
     <g id="line2d_4">
      <g>
       <use xlink:href="#m26611d492d" x="509.400938" y="385.478125" style="stroke: #000000; stroke-width: 0.8"/>
      </g>
     </g>
     <g id="text_4">
      <!-- 600 -->
      <g transform="translate(499.857188 400.076562) scale(0.1 -0.1)">
       <defs>
        <path id="DejaVuSans-36" d="M 2113 2584 
Q 1688 2584 1439 2293 
Q 1191 2003 1191 1497 
Q 1191 994 1439 701 
Q 1688 409 2113 409 
Q 2538 409 2786 701 
Q 3034 994 3034 1497 
Q 3034 2003 2786 2293 
Q 2538 2584 2113 2584 
z
M 3366 4563 
L 3366 3988 
Q 3128 4100 2886 4159 
Q 2644 4219 2406 4219 
Q 1781 4219 1451 3797 
Q 1122 3375 1075 2522 
Q 1259 2794 1537 2939 
Q 1816 3084 2150 3084 
Q 2853 3084 3261 2657 
Q 3669 2231 3669 1497 
Q 3669 778 3244 343 
Q 2819 -91 2113 -91 
Q 1303 -91 875 529 
Q 447 1150 447 2328 
Q 447 3434 972 4092 
Q 1497 4750 2381 4750 
Q 2619 4750 2861 4703 
Q 3103 4656 3366 4563 
z
" transform="scale(0.015625)"/>
       </defs>
       <use xlink:href="#DejaVuSans-36"/>
       <use xlink:href="#DejaVuSans-30" transform="translate(63.623047 0)"/>
       <use xlink:href="#DejaVuSans-30" transform="translate(127.246094 0)"/>
      </g>
     </g>
    </g>
    <g id="xtick_5">
     <g id="line2d_5">
      <g>
       <use xlink:href="#m26611d492d" x="640.040938" y="385.478125" style="stroke: #000000; stroke-width: 0.8"/>
      </g>
     </g>
     <g id="text_5">
      <!-- 700 -->
      <g transform="translate(630.497188 400.076562) scale(0.1 -0.1)">
       <defs>
        <path id="DejaVuSans-37" d="M 525 4666 
L 3525 4666 
L 3525 4397 
L 1831 0 
L 1172 0 
L 2766 4134 
L 525 4134 
L 525 4666 
z
" transform="scale(0.015625)"/>
       </defs>
       <use xlink:href="#DejaVuSans-37"/>
       <use xlink:href="#DejaVuSans-30" transform="translate(63.623047 0)"/>
       <use xlink:href="#DejaVuSans-30" transform="translate(127.246094 0)"/>
      </g>
     </g>
    </g>
    <g id="text_6">
     <!-- Wavelength (nm) -->
     <g transform="translate(335.56875 413.754687) scale(0.1 -0.1)">
      <defs>
       <path id="DejaVuSans-57" d="M 213 4666 
L 850 4666 
L 1831 722 
L 2809 4666 
L 3519 4666 
L 4500 722 
L 5478 4666 
L 6119 4666 
L 4947 0 
L 4153 0 
L 3169 4050 
L 2175 0 
L 1381 0 
L 213 4666 
z
" transform="scale(0.015625)"/>
       <path id="DejaVuSans-61" d="M 2194 1759 
Q 1497 1759 1228 1600 
Q 959 1441 959 1056 
Q 959 750 1161 570 
Q 1363 391 1709 391 
Q 2188 391 2477 730 
Q 2766 1069 2766 1631 
L 2766 1759 
L 2194 1759 
z
M 3341 1997 
L 3341 0 
L 2766 0 
L 2766 531 
Q 2569 213 2275 61 
Q 1981 -91 1556 -91 
Q 1019 -91 701 211 
Q 384 513 384 1019 
Q 384 1609 779 1909 
Q 1175 2209 1959 2209 
L 2766 2209 
L 2766 2266 
Q 2766 2663 2505 2880 
Q 2244 3097 1772 3097 
Q 1472 3097 1187 3025 
Q 903 2953 641 2809 
L 641 3341 
Q 956 3463 1253 3523 
Q 1550 3584 1831 3584 
Q 2591 3584 2966 3190 
Q 3341 2797 3341 1997 
z
" transform="scale(0.015625)"/>
       <path id="DejaVuSans-76" d="M 191 3500 
L 800 3500 
L 1894 563 
L 2988 3500 
L 3597 3500 
L 2284 0 
L 1503 0 
L 191 3500 
z
" transform="scale(0.015625)"/>
       <path id="DejaVuSans-65" d="M 3597 1894 
L 3597 1613 
L 953 1613 
Q 991 1019 1311 708 
Q 1631 397 2203 397 
Q 2534 397 2845 478 
Q 3156 559 3463 722 
L 3463 178 
Q 3153 47 2828 -22 
Q 2503 -91 2169 -91 
Q 1331 -91 842 396 
Q 353 884 353 1716 
Q 353 2575 817 3079 
Q 1281 3584 2069 3584 
Q 2775 3584 3186 3129 
Q 3597 2675 3597 1894 
z
M 3022 2063 
Q 3016 2534 2758 2815 
Q 2500 3097 2075 3097 
Q 1594 3097 1305 2825 
Q 1016 2553 972 2059 
L 3022 2063 
z
" transform="scale(0.015625)"/>
       <path id="DejaVuSans-6c" d="M 603 4863 
L 1178 4863 
L 1178 0 
L 603 0 
L 603 4863 
z
" transform="scale(0.015625)"/>
       <path id="DejaVuSans-6e" d="M 3513 2113 
L 3513 0 
L 2938 0 
L 2938 2094 
Q 2938 2591 2744 2837 
Q 2550 3084 2163 3084 
Q 1697 3084 1428 2787 
Q 1159 2491 1159 1978 
L 1159 0 
L 581 0 
L 581 3500 
L 1159 3500 
L 1159 2956 
Q 1366 3272 1645 3428 
Q 1925 3584 2291 3584 
Q 2894 3584 3203 3211 
Q 3513 2838 3513 2113 
z
" transform="scale(0.015625)"/>
       <path id="DejaVuSans-67" d="M 2906 1791 
Q 2906 2416 2648 2759 
Q 2391 3103 1925 3103 
Q 1463 3103 1205 2759 
Q 947 2416 947 1791 
Q 947 1169 1205 825 
Q 1463 481 1925 481 
Q 2391 481 2648 825 
Q 2906 1169 2906 1791 
z
M 3481 434 
Q 3481 -459 3084 -895 
Q 2688 -1331 1869 -1331 
Q 1566 -1331 1297 -1286 
Q 1028 -1241 775 -1147 
L 775 -588 
Q 1028 -725 1275 -790 
Q 1522 -856 1778 -856 
Q 2344 -856 2625 -561 
Q 2906 -266 2906 331 
L 2906 616 
Q 2728 306 2450 153 
Q 2172 0 1784 0 
Q 1141 0 747 490 
Q 353 981 353 1791 
Q 353 2603 747 3093 
Q 1141 3584 1784 3584 
Q 2172 3584 2450 3431 
Q 2728 3278 2906 2969 
L 2906 3500 
L 3481 3500 
L 3481 434 
z
" transform="scale(0.015625)"/>
       <path id="DejaVuSans-74" d="M 1172 4494 
L 1172 3500 
L 2356 3500 
L 2356 3053 
L 1172 3053 
L 1172 1153 
Q 1172 725 1289 603 
Q 1406 481 1766 481 
L 2356 481 
L 2356 0 
L 1766 0 
Q 1100 0 847 248 
Q 594 497 594 1153 
L 594 3053 
L 172 3053 
L 172 3500 
L 594 3500 
L 594 4494 
L 1172 4494 
z
" transform="scale(0.015625)"/>
       <path id="DejaVuSans-68" d="M 3513 2113 
L 3513 0 
L 2938 0 
L 2938 2094 
Q 2938 2591 2744 2837 
Q 2550 3084 2163 3084 
Q 1697 3084 1428 2787 
Q 1159 2491 1159 1978 
L 1159 0 
L 581 0 
L 581 4863 
L 1159 4863 
L 1159 2956 
Q 1366 3272 1645 3428 
Q 1925 3584 2291 3584 
Q 2894 3584 3203 3211 
Q 3513 2838 3513 2113 
z
" transform="scale(0.015625)"/>
       <path id="DejaVuSans-20" transform="scale(0.015625)"/>
       <path id="DejaVuSans-28" d="M 1984 4856 
Q 1566 4138 1362 3434 
Q 1159 2731 1159 2009 
Q 1159 1288 1364 580 
Q 1569 -128 1984 -844 
L 1484 -844 
Q 1016 -109 783 600 
Q 550 1309 550 2009 
Q 550 2706 781 3412 
Q 1013 4119 1484 4856 
L 1984 4856 
z
" transform="scale(0.015625)"/>
       <path id="DejaVuSans-6d" d="M 3328 2828 
Q 3544 3216 3844 3400 
Q 4144 3584 4550 3584 
Q 5097 3584 5394 3201 
Q 5691 2819 5691 2113 
L 5691 0 
L 5113 0 
L 5113 2094 
Q 5113 2597 4934 2840 
Q 4756 3084 4391 3084 
Q 3944 3084 3684 2787 
Q 3425 2491 3425 1978 
L 3425 0 
L 2847 0 
L 2847 2094 
Q 2847 2600 2669 2842 
Q 2491 3084 2119 3084 
Q 1678 3084 1418 2786 
Q 1159 2488 1159 1978 
L 1159 0 
L 581 0 
L 581 3500 
L 1159 3500 
L 1159 2956 
Q 1356 3278 1631 3431 
Q 1906 3584 2284 3584 
Q 2666 3584 2933 3390 
Q 3200 3197 3328 2828 
z
" transform="scale(0.015625)"/>
       <path id="DejaVuSans-29" d="M 513 4856 
L 1013 4856 
Q 1481 4119 1714 3412 
Q 1947 2706 1947 2009 
Q 1947 1309 1714 600 
Q 1481 -109 1013 -844 
L 513 -844 
Q 928 -128 1133 580 
Q 1338 1288 1338 2009 
Q 1338 2731 1133 3434 
Q 928 4138 513 4856 
z
" transform="scale(0.015625)"/>
      </defs>
      <use xlink:href="#DejaVuSans-57"/>
      <use xlink:href="#DejaVuSans-61" transform="translate(92.501953 0)"/>
      <use xlink:href="#DejaVuSans-76" transform="translate(153.78125 0)"/>
      <use xlink:href="#DejaVuSans-65" transform="translate(212.960938 0)"/>
      <use xlink:href="#DejaVuSans-6c" transform="translate(274.484375 0)"/>
      <use xlink:href="#DejaVuSans-65" transform="translate(302.267578 0)"/>
      <use xlink:href="#DejaVuSans-6e" transform="translate(363.791016 0)"/>
      <use xlink:href="#DejaVuSans-67" transform="translate(427.169922 0)"/>
      <use xlink:href="#DejaVuSans-74" transform="translate(490.646484 0)"/>
      <use xlink:href="#DejaVuSans-68" transform="translate(529.855469 0)"/>
      <use xlink:href="#DejaVuSans-20" transform="translate(593.234375 0)"/>
      <use xlink:href="#DejaVuSans-28" transform="translate(625.021484 0)"/>
      <use xlink:href="#DejaVuSans-6e" transform="translate(664.035156 0)"/>
      <use xlink:href="#DejaVuSans-6d" transform="translate(727.414062 0)"/>
      <use xlink:href="#DejaVuSans-29" transform="translate(824.826172 0)"/>
     </g>
    </g>
   </g>
   <g id="matplotlib.axis_2">
    <g id="ytick_1">
     <g id="line2d_6">
      <defs>
       <path id="m5c6fbacae9" d="M 0 0 
L -3.5 0 
" style="stroke: #000000; stroke-width: 0.8"/>
      </defs>
      <g>
       <use xlink:href="#m5c6fbacae9" x="52.160938" y="372.784229" style="stroke: #000000; stroke-width: 0.8"/>
      </g>
     </g>
     <g id="text_7">
      <!-- −0.4 -->
      <g transform="translate(20.878125 376.583448) scale(0.1 -0.1)">
       <defs>
        <path id="DejaVuSans-2212" d="M 678 2272 
L 4684 2272 
L 4684 1741 
L 678 1741 
L 678 2272 
z
" transform="scale(0.015625)"/>
        <path id="DejaVuSans-2e" d="M 684 794 
L 1344 794 
L 1344 0 
L 684 0 
L 684 794 
z
" transform="scale(0.015625)"/>
       </defs>
       <use xlink:href="#DejaVuSans-2212"/>
       <use xlink:href="#DejaVuSans-30" transform="translate(83.789062 0)"/>
       <use xlink:href="#DejaVuSans-2e" transform="translate(147.412109 0)"/>
       <use xlink:href="#DejaVuSans-34" transform="translate(179.199219 0)"/>
      </g>
     </g>
    </g>
    <g id="ytick_2">
     <g id="line2d_7">
      <g>
       <use xlink:href="#m5c6fbacae9" x="52.160938" y="302.281365" style="stroke: #000000; stroke-width: 0.8"/>
      </g>
     </g>
     <g id="text_8">
      <!-- −0.2 -->
      <g transform="translate(20.878125 306.080584) scale(0.1 -0.1)">
       <defs>
        <path id="DejaVuSans-32" d="M 1228 531 
L 3431 531 
L 3431 0 
L 469 0 
L 469 531 
Q 828 903 1448 1529 
Q 2069 2156 2228 2338 
Q 2531 2678 2651 2914 
Q 2772 3150 2772 3378 
Q 2772 3750 2511 3984 
Q 2250 4219 1831 4219 
Q 1534 4219 1204 4116 
Q 875 4013 500 3803 
L 500 4441 
Q 881 4594 1212 4672 
Q 1544 4750 1819 4750 
Q 2544 4750 2975 4387 
Q 3406 4025 3406 3419 
Q 3406 3131 3298 2873 
Q 3191 2616 2906 2266 
Q 2828 2175 2409 1742 
Q 1991 1309 1228 531 
z
" transform="scale(0.015625)"/>
       </defs>
       <use xlink:href="#DejaVuSans-2212"/>
       <use xlink:href="#DejaVuSans-30" transform="translate(83.789062 0)"/>
       <use xlink:href="#DejaVuSans-2e" transform="translate(147.412109 0)"/>
       <use xlink:href="#DejaVuSans-32" transform="translate(179.199219 0)"/>
      </g>
     </g>
    </g>
    <g id="ytick_3">
     <g id="line2d_8">
      <g>
       <use xlink:href="#m5c6fbacae9" x="52.160938" y="231.778502" style="stroke: #000000; stroke-width: 0.8"/>
      </g>
     </g>
     <g id="text_9">
      <!-- 0.0 -->
      <g transform="translate(29.257813 235.577721) scale(0.1 -0.1)">
       <use xlink:href="#DejaVuSans-30"/>
       <use xlink:href="#DejaVuSans-2e" transform="translate(63.623047 0)"/>
       <use xlink:href="#DejaVuSans-30" transform="translate(95.410156 0)"/>
      </g>
     </g>
    </g>
    <g id="ytick_4">
     <g id="line2d_9">
      <g>
       <use xlink:href="#m5c6fbacae9" x="52.160938" y="161.275638" style="stroke: #000000; stroke-width: 0.8"/>
      </g>
     </g>
     <g id="text_10">
      <!-- 0.2 -->
      <g transform="translate(29.257813 165.074857) scale(0.1 -0.1)">
       <use xlink:href="#DejaVuSans-30"/>
       <use xlink:href="#DejaVuSans-2e" transform="translate(63.623047 0)"/>
       <use xlink:href="#DejaVuSans-32" transform="translate(95.410156 0)"/>
      </g>
     </g>
    </g>
    <g id="ytick_5">
     <g id="line2d_10">
      <g>
       <use xlink:href="#m5c6fbacae9" x="52.160938" y="90.772775" style="stroke: #000000; stroke-width: 0.8"/>
      </g>
     </g>
     <g id="text_11">
      <!-- 0.4 -->
      <g transform="translate(29.257813 94.571993) scale(0.1 -0.1)">
       <use xlink:href="#DejaVuSans-30"/>
       <use xlink:href="#DejaVuSans-2e" transform="translate(63.623047 0)"/>
       <use xlink:href="#DejaVuSans-34" transform="translate(95.410156 0)"/>
      </g>
     </g>
    </g>
    <g id="text_12">
     <!-- MCD intensity (arb. units) -->
     <g transform="translate(14.798438 268.073125) rotate(-90) scale(0.1 -0.1)">
      <defs>
       <path id="DejaVuSans-4d" d="M 628 4666 
L 1569 4666 
L 2759 1491 
L 3956 4666 
L 4897 4666 
L 4897 0 
L 4281 0 
L 4281 4097 
L 3078 897 
L 2444 897 
L 1241 4097 
L 1241 0 
L 628 0 
L 628 4666 
z
" transform="scale(0.015625)"/>
       <path id="DejaVuSans-43" d="M 4122 4306 
L 4122 3641 
Q 3803 3938 3442 4084 
Q 3081 4231 2675 4231 
Q 1875 4231 1450 3742 
Q 1025 3253 1025 2328 
Q 1025 1406 1450 917 
Q 1875 428 2675 428 
Q 3081 428 3442 575 
Q 3803 722 4122 1019 
L 4122 359 
Q 3791 134 3420 21 
Q 3050 -91 2638 -91 
Q 1578 -91 968 557 
Q 359 1206 359 2328 
Q 359 3453 968 4101 
Q 1578 4750 2638 4750 
Q 3056 4750 3426 4639 
Q 3797 4528 4122 4306 
z
" transform="scale(0.015625)"/>
       <path id="DejaVuSans-44" d="M 1259 4147 
L 1259 519 
L 2022 519 
Q 2988 519 3436 956 
Q 3884 1394 3884 2338 
Q 3884 3275 3436 3711 
Q 2988 4147 2022 4147 
L 1259 4147 
z
M 628 4666 
L 1925 4666 
Q 3281 4666 3915 4102 
Q 4550 3538 4550 2338 
Q 4550 1131 3912 565 
Q 3275 0 1925 0 
L 628 0 
L 628 4666 
z
" transform="scale(0.015625)"/>
       <path id="DejaVuSans-69" d="M 603 3500 
L 1178 3500 
L 1178 0 
L 603 0 
L 603 3500 
z
M 603 4863 
L 1178 4863 
L 1178 4134 
L 603 4134 
L 603 4863 
z
" transform="scale(0.015625)"/>
       <path id="DejaVuSans-73" d="M 2834 3397 
L 2834 2853 
Q 2591 2978 2328 3040 
Q 2066 3103 1784 3103 
Q 1356 3103 1142 2972 
Q 928 2841 928 2578 
Q 928 2378 1081 2264 
Q 1234 2150 1697 2047 
L 1894 2003 
Q 2506 1872 2764 1633 
Q 3022 1394 3022 966 
Q 3022 478 2636 193 
Q 2250 -91 1575 -91 
Q 1294 -91 989 -36 
Q 684 19 347 128 
L 347 722 
Q 666 556 975 473 
Q 1284 391 1588 391 
Q 1994 391 2212 530 
Q 2431 669 2431 922 
Q 2431 1156 2273 1281 
Q 2116 1406 1581 1522 
L 1381 1569 
Q 847 1681 609 1914 
Q 372 2147 372 2553 
Q 372 3047 722 3315 
Q 1072 3584 1716 3584 
Q 2034 3584 2315 3537 
Q 2597 3491 2834 3397 
z
" transform="scale(0.015625)"/>
       <path id="DejaVuSans-79" d="M 2059 -325 
Q 1816 -950 1584 -1140 
Q 1353 -1331 966 -1331 
L 506 -1331 
L 506 -850 
L 844 -850 
Q 1081 -850 1212 -737 
Q 1344 -625 1503 -206 
L 1606 56 
L 191 3500 
L 800 3500 
L 1894 763 
L 2988 3500 
L 3597 3500 
L 2059 -325 
z
" transform="scale(0.015625)"/>
       <path id="DejaVuSans-72" d="M 2631 2963 
Q 2534 3019 2420 3045 
Q 2306 3072 2169 3072 
Q 1681 3072 1420 2755 
Q 1159 2438 1159 1844 
L 1159 0 
L 581 0 
L 581 3500 
L 1159 3500 
L 1159 2956 
Q 1341 3275 1631 3429 
Q 1922 3584 2338 3584 
Q 2397 3584 2469 3576 
Q 2541 3569 2628 3553 
L 2631 2963 
z
" transform="scale(0.015625)"/>
       <path id="DejaVuSans-62" d="M 3116 1747 
Q 3116 2381 2855 2742 
Q 2594 3103 2138 3103 
Q 1681 3103 1420 2742 
Q 1159 2381 1159 1747 
Q 1159 1113 1420 752 
Q 1681 391 2138 391 
Q 2594 391 2855 752 
Q 3116 1113 3116 1747 
z
M 1159 2969 
Q 1341 3281 1617 3432 
Q 1894 3584 2278 3584 
Q 2916 3584 3314 3078 
Q 3713 2572 3713 1747 
Q 3713 922 3314 415 
Q 2916 -91 2278 -91 
Q 1894 -91 1617 61 
Q 1341 213 1159 525 
L 1159 0 
L 581 0 
L 581 4863 
L 1159 4863 
L 1159 2969 
z
" transform="scale(0.015625)"/>
       <path id="DejaVuSans-75" d="M 544 1381 
L 544 3500 
L 1119 3500 
L 1119 1403 
Q 1119 906 1312 657 
Q 1506 409 1894 409 
Q 2359 409 2629 706 
Q 2900 1003 2900 1516 
L 2900 3500 
L 3475 3500 
L 3475 0 
L 2900 0 
L 2900 538 
Q 2691 219 2414 64 
Q 2138 -91 1772 -91 
Q 1169 -91 856 284 
Q 544 659 544 1381 
z
M 1991 3584 
L 1991 3584 
z
" transform="scale(0.015625)"/>
      </defs>
      <use xlink:href="#DejaVuSans-4d"/>
      <use xlink:href="#DejaVuSans-43" transform="translate(86.279297 0)"/>
      <use xlink:href="#DejaVuSans-44" transform="translate(156.103516 0)"/>
      <use xlink:href="#DejaVuSans-20" transform="translate(233.105469 0)"/>
      <use xlink:href="#DejaVuSans-69" transform="translate(264.892578 0)"/>
      <use xlink:href="#DejaVuSans-6e" transform="translate(292.675781 0)"/>
      <use xlink:href="#DejaVuSans-74" transform="translate(356.054688 0)"/>
      <use xlink:href="#DejaVuSans-65" transform="translate(395.263672 0)"/>
      <use xlink:href="#DejaVuSans-6e" transform="translate(456.787109 0)"/>
      <use xlink:href="#DejaVuSans-73" transform="translate(520.166016 0)"/>
      <use xlink:href="#DejaVuSans-69" transform="translate(572.265625 0)"/>
      <use xlink:href="#DejaVuSans-74" transform="translate(600.048828 0)"/>
      <use xlink:href="#DejaVuSans-79" transform="translate(639.257812 0)"/>
      <use xlink:href="#DejaVuSans-20" transform="translate(698.4375 0)"/>
      <use xlink:href="#DejaVuSans-28" transform="translate(730.224609 0)"/>
      <use xlink:href="#DejaVuSans-61" transform="translate(769.238281 0)"/>
      <use xlink:href="#DejaVuSans-72" transform="translate(830.517578 0)"/>
      <use xlink:href="#DejaVuSans-62" transform="translate(871.630859 0)"/>
      <use xlink:href="#DejaVuSans-2e" transform="translate(935.107422 0)"/>
      <use xlink:href="#DejaVuSans-20" transform="translate(966.894531 0)"/>
      <use xlink:href="#DejaVuSans-75" transform="translate(998.681641 0)"/>
      <use xlink:href="#DejaVuSans-6e" transform="translate(1062.060547 0)"/>
      <use xlink:href="#DejaVuSans-69" transform="translate(1125.439453 0)"/>
      <use xlink:href="#DejaVuSans-74" transform="translate(1153.222656 0)"/>
      <use xlink:href="#DejaVuSans-73" transform="translate(1192.431641 0)"/>
      <use xlink:href="#DejaVuSans-29" transform="translate(1244.53125 0)"/>
     </g>
    </g>
   </g>
   <g id="line2d_11">
    <path d="M 52.160938 231.773182 
L 76.329338 231.64321 
L 85.474137 231.384296 
L 92.006137 230.975245 
L 96.578538 230.490161 
L 100.497738 229.879412 
L 103.763738 229.185572 
L 107.029737 228.276448 
L 110.295737 227.099614 
L 112.908537 225.925139 
L 115.521337 224.50653 
L 118.134137 222.806639 
L 120.746937 220.785991 
L 123.359738 218.403463 
L 125.319338 216.353896 
L 127.278938 214.059609 
L 129.238537 211.503436 
L 131.198138 208.668967 
L 133.810938 204.430624 
L 136.423737 199.638978 
L 139.036538 194.269244 
L 141.649337 188.305414 
L 144.262138 181.742186 
L 146.874938 174.586843 
L 149.487738 166.860924 
L 152.753738 156.459429 
L 156.019737 145.335311 
L 160.592138 128.844194 
L 173.002938 83.280094 
L 176.268937 72.464369 
L 178.881738 64.566642 
L 180.841338 59.181697 
L 182.800937 54.32407 
L 184.760538 50.048505 
L 186.720137 46.404512 
L 188.026538 44.347771 
L 189.332937 42.602352 
L 190.639337 41.178008 
L 191.945738 40.082947 
L 193.252138 39.323807 
L 194.558538 38.90557 
L 195.864937 38.831563 
L 197.171338 39.103398 
L 198.477737 39.721003 
L 199.784138 40.682602 
L 201.090537 41.984765 
L 202.396938 43.622423 
L 203.703338 45.588938 
L 205.009737 47.876164 
L 206.969337 51.887019 
L 208.928937 56.559766 
L 210.888537 61.850593 
L 212.848138 67.710611 
L 215.460937 76.317301 
L 218.073738 85.707623 
L 221.339737 98.33549 
L 225.258938 114.434805 
L 231.790938 142.414416 
L 239.629338 175.798435 
L 244.854938 196.994987 
L 249.427337 214.552657 
L 253.999738 231.123858 
L 258.572137 246.742689 
L 263.144538 261.496259 
L 267.716937 275.487563 
L 272.289338 288.802843 
L 276.861738 301.486668 
L 281.434137 313.526438 
L 285.353337 323.278169 
L 289.272537 332.419898 
L 292.538537 339.493704 
L 295.804537 345.994085 
L 298.417338 350.727863 
L 301.030138 355.001443 
L 303.642937 358.773308 
L 305.602538 361.248984 
L 307.562137 363.404404 
L 309.521738 365.225176 
L 311.481338 366.698404 
L 313.440938 367.812938 
L 314.747337 368.352056 
L 316.053737 368.725404 
L 317.360137 368.931209 
L 318.666538 368.968148 
L 319.972938 368.83536 
L 321.279338 368.532458 
L 322.585737 368.059539 
L 323.892138 367.417184 
L 325.851738 366.138407 
L 327.811338 364.486493 
L 329.770938 362.469417 
L 331.730538 360.097439 
L 333.690138 357.382995 
L 335.649738 354.340532 
L 338.262537 349.802114 
L 340.875337 344.752942 
L 343.488137 339.240577 
L 346.754138 331.776686 
L 350.020138 323.773553 
L 353.939338 313.609455 
L 359.164938 299.409558 
L 376.801338 250.893622 
L 381.373737 239.144715 
L 385.946138 227.997084 
L 389.865337 218.973874 
L 393.784537 210.469663 
L 397.703737 202.497252 
L 401.622938 195.059588 
L 405.542137 188.152849 
L 409.461337 181.769241 
L 412.727337 176.842427 
L 415.993337 172.267052 
L 419.259337 168.038456 
L 422.525338 164.153029 
L 425.791338 160.608367 
L 429.057338 157.403297 
L 432.323337 154.537754 
L 435.589337 152.012542 
L 438.202137 150.238313 
L 440.814937 148.683552 
L 443.427737 147.348982 
L 446.040537 146.235132 
L 448.653338 145.342199 
L 451.266137 144.669901 
L 453.878938 144.217382 
L 456.491738 143.983098 
L 459.104538 143.964714 
L 461.717338 144.159048 
L 464.330137 144.561997 
L 466.942937 145.168515 
L 469.555738 145.972597 
L 472.821737 147.2448 
L 476.087738 148.799039 
L 479.353737 150.617449 
L 482.619737 152.680169 
L 486.538937 155.447357 
L 490.458138 158.494967 
L 495.030537 162.348177 
L 500.256138 167.058646 
L 507.441337 173.883457 
L 525.077737 190.82845 
L 530.956537 196.12091 
L 536.182137 200.550665 
L 541.407737 204.677056 
L 545.980138 208.015282 
L 550.552537 211.086521 
L 555.124938 213.885513 
L 559.697337 216.412963 
L 564.269737 218.674716 
L 568.842137 220.680882 
L 573.414537 222.444952 
L 577.986938 223.98293 
L 583.212537 225.486558 
L 588.438137 226.746014 
L 593.663738 227.789711 
L 599.542537 228.7406 
L 606.074537 229.563788 
L 613.259737 230.239541 
L 621.751337 230.799481 
L 631.549338 231.214592 
L 643.960137 231.510672 
L 661.596538 231.693363 
L 694.909737 231.771131 
L 704.707738 231.775156 
L 704.707738 231.775156 
" clip-path="url(#pd2aace8cab)" style="fill: none; stroke: #1f77b4; stroke-width: 1.2; stroke-linecap: square"/>
   </g>
   <g id="line2d_12">
    <path d="M 52.160938 231.778273 
L 100.497738 231.668782 
L 111.602138 231.431497 
L 118.787337 231.085141 
L 124.666137 230.594043 
L 129.238537 230.016283 
L 133.157738 229.334266 
L 137.076938 228.429891 
L 140.342937 227.466258 
L 143.608938 226.272725 
L 146.874938 224.808864 
L 149.487738 223.413954 
L 152.100538 221.794799 
L 154.713338 219.927429 
L 157.326138 217.787769 
L 159.938938 215.352191 
L 162.551737 212.598162 
L 165.164538 209.504962 
L 167.777338 206.054485 
L 170.390138 202.232084 
L 173.002938 198.027452 
L 175.615737 193.435502 
L 178.228537 188.457245 
L 181.494537 181.703931 
L 184.760538 174.392224 
L 188.026538 166.574683 
L 191.945738 156.631442 
L 197.171338 142.705205 
L 207.622538 114.620721 
L 211.541737 104.853596 
L 214.807738 97.374257 
L 217.420537 91.945361 
L 220.033337 87.098722 
L 221.992938 83.891713 
L 223.952538 81.084007 
L 225.912138 78.701578 
L 227.871738 76.767018 
L 229.178138 75.735617 
L 230.484538 74.916371 
L 231.790938 74.313088 
L 233.097337 73.928738 
L 234.403737 73.765443 
L 235.710137 73.824454 
L 237.016538 74.106152 
L 238.322937 74.61005 
L 239.629338 75.334787 
L 240.935737 76.278172 
L 242.242138 77.437162 
L 244.201738 79.571301 
L 246.161338 82.165531 
L 248.120938 85.20001 
L 250.080537 88.651562 
L 252.040137 92.494088 
L 254.652938 98.175833 
L 257.265738 104.428069 
L 260.531738 112.926498 
L 263.797738 122.036706 
L 268.370137 135.519173 
L 276.208537 159.539526 
L 283.393738 181.333844 
L 288.619338 196.507164 
L 293.191738 209.140307 
L 297.764138 221.121021 
L 302.336538 232.458453 
L 306.908937 243.201795 
L 311.481338 253.422842 
L 316.706938 264.563497 
L 322.585737 276.524054 
L 328.464537 287.955314 
L 333.690138 297.671056 
L 338.915738 306.901785 
L 343.488137 314.487734 
L 347.407338 320.539985 
L 350.673337 325.205858 
L 353.939338 329.475797 
L 356.552138 332.572734 
L 359.164938 335.358348 
L 361.777738 337.807942 
L 364.390538 339.898274 
L 366.350138 341.217368 
L 368.309738 342.31427 
L 370.269338 343.181765 
L 372.228938 343.813615 
L 374.188537 344.204624 
L 376.148138 344.350713 
L 378.107738 344.248974 
L 380.067337 343.897704 
L 382.026937 343.296431 
L 383.986537 342.44593 
L 385.946138 341.348222 
L 387.905738 340.006556 
L 389.865337 338.425374 
L 391.824938 336.610285 
L 394.437738 333.83807 
L 397.050537 330.680849 
L 399.663338 327.160395 
L 402.276137 323.30111 
L 405.542137 318.041311 
L 408.808138 312.349862 
L 412.727337 305.033786 
L 417.299738 295.961365 
L 423.178537 283.705616 
L 445.387337 236.711467 
L 450.612937 226.470383 
L 455.185338 217.964576 
L 459.757737 209.932188 
L 463.676937 203.449172 
L 467.596137 197.352482 
L 471.515337 191.65197 
L 475.434537 186.354138 
L 479.353737 181.463143 
L 483.272938 176.981628 
L 486.538937 173.561097 
L 489.804937 170.426864 
L 493.070938 167.579521 
L 496.336938 165.019541 
L 499.602938 162.747252 
L 502.868937 160.762765 
L 506.134938 159.06586 
L 509.400937 157.655852 
L 512.666938 156.531434 
L 515.932938 155.690504 
L 519.198938 155.130038 
L 522.464938 154.845911 
L 525.730938 154.832801 
L 528.996937 155.08407 
L 532.262937 155.591704 
L 535.528938 156.346275 
L 538.794938 157.336939 
L 542.060938 158.551457 
L 545.326937 159.976288 
L 549.246138 161.94281 
L 553.165338 164.163263 
L 557.737737 167.035345 
L 562.310137 170.16368 
L 568.188938 174.480469 
L 575.374138 180.058821 
L 596.929737 197.009648 
L 603.461738 201.759909 
L 609.340537 205.753864 
L 614.566137 209.047325 
L 619.791738 212.080266 
L 625.017337 214.842886 
L 630.242937 217.332652 
L 635.468537 219.553369 
L 640.694137 221.514127 
L 645.919737 223.228228 
L 651.145338 224.712137 
L 657.024137 226.129622 
L 662.902937 227.307697 
L 669.434937 228.371053 
L 675.966938 229.213361 
L 683.152138 229.928091 
L 691.643737 230.544624 
L 701.441738 231.025253 
L 704.707738 231.143444 
L 704.707738 231.143444 
" clip-path="url(#pd2aace8cab)" style="fill: none; stroke: #ff7f0e; stroke-width: 1.2; stroke-linecap: square"/>
   </g>
   <g id="line2d_13">
    <path d="M 52.160938 231.778502 
L 705.360938 231.778502 
" clip-path="url(#pd2aace8cab)" style="fill: none; stroke-dasharray: 2.96,1.28; stroke-dashoffset: 0; stroke: #1f77b4; stroke-width: 0.8"/>
   </g>
   <g id="patch_3">
    <path d="M 52.160938 385.478125 
L 52.160938 22.318125 
" style="fill: none; stroke: #000000; stroke-width: 0.8; stroke-linejoin: miter; stroke-linecap: square"/>
   </g>
   <g id="patch_4">
    <path d="M 705.360938 385.478125 
L 705.360938 22.318125 
" style="fill: none; stroke: #000000; stroke-width: 0.8; stroke-linejoin: miter; stroke-linecap: square"/>
   </g>
   <g id="patch_5">
    <path d="M 52.160938 385.478125 
L 705.360938 385.478125 
" style="fill: none; stroke: #000000; stroke-width: 0.8; stroke-linejoin: miter; stroke-linecap: square"/>
   </g>
   <g id="patch_6">
    <path d="M 52.160938 22.318125 
L 705.360938 22.318125 
" style="fill: none; stroke: #000000; stroke-width: 0.8; stroke-linejoin: miter; stroke-linecap: square"/>
   </g>
   <g id="text_13">
    <!-- Combined MCD spectra -->
    <g transform="translate(308.054688 16.318125) scale(0.12 -0.12)">
     <defs>
      <path id="DejaVuSans-6f" d="M 1959 3097 
Q 1497 3097 1228 2736 
Q 959 2375 959 1747 
Q 959 1119 1226 758 
Q 1494 397 1959 397 
Q 2419 397 2687 759 
Q 2956 1122 2956 1747 
Q 2956 2369 2687 2733 
Q 2419 3097 1959 3097 
z
M 1959 3584 
Q 2709 3584 3137 3096 
Q 3566 2609 3566 1747 
Q 3566 888 3137 398 
Q 2709 -91 1959 -91 
Q 1206 -91 779 398 
Q 353 888 353 1747 
Q 353 2609 779 3096 
Q 1206 3584 1959 3584 
z
" transform="scale(0.015625)"/>
      <path id="DejaVuSans-64" d="M 2906 2969 
L 2906 4863 
L 3481 4863 
L 3481 0 
L 2906 0 
L 2906 525 
Q 2725 213 2448 61 
Q 2172 -91 1784 -91 
Q 1150 -91 751 415 
Q 353 922 353 1747 
Q 353 2572 751 3078 
Q 1150 3584 1784 3584 
Q 2172 3584 2448 3432 
Q 2725 3281 2906 2969 
z
M 947 1747 
Q 947 1113 1208 752 
Q 1469 391 1925 391 
Q 2381 391 2643 752 
Q 2906 1113 2906 1747 
Q 2906 2381 2643 2742 
Q 2381 3103 1925 3103 
Q 1469 3103 1208 2742 
Q 947 2381 947 1747 
z
" transform="scale(0.015625)"/>
      <path id="DejaVuSans-70" d="M 1159 525 
L 1159 -1331 
L 581 -1331 
L 581 3500 
L 1159 3500 
L 1159 2969 
Q 1341 3281 1617 3432 
Q 1894 3584 2278 3584 
Q 2916 3584 3314 3078 
Q 3713 2572 3713 1747 
Q 3713 922 3314 415 
Q 2916 -91 2278 -91 
Q 1894 -91 1617 61 
Q 1341 213 1159 525 
z
M 3116 1747 
Q 3116 2381 2855 2742 
Q 2594 3103 2138 3103 
Q 1681 3103 1420 2742 
Q 1159 2381 1159 1747 
Q 1159 1113 1420 752 
Q 1681 391 2138 391 
Q 2594 391 2855 752 
Q 3116 1113 3116 1747 
z
" transform="scale(0.015625)"/>
      <path id="DejaVuSans-63" d="M 3122 3366 
L 3122 2828 
Q 2878 2963 2633 3030 
Q 2388 3097 2138 3097 
Q 1578 3097 1268 2742 
Q 959 2388 959 1747 
Q 959 1106 1268 751 
Q 1578 397 2138 397 
Q 2388 397 2633 464 
Q 2878 531 3122 666 
L 3122 134 
Q 2881 22 2623 -34 
Q 2366 -91 2075 -91 
Q 1284 -91 818 406 
Q 353 903 353 1747 
Q 353 2603 823 3093 
Q 1294 3584 2113 3584 
Q 2378 3584 2631 3529 
Q 2884 3475 3122 3366 
z
" transform="scale(0.015625)"/>
     </defs>
     <use xlink:href="#DejaVuSans-43"/>
     <use xlink:href="#DejaVuSans-6f" transform="translate(69.824219 0)"/>
     <use xlink:href="#DejaVuSans-6d" transform="translate(131.005859 0)"/>
     <use xlink:href="#DejaVuSans-62" transform="translate(228.417969 0)"/>
     <use xlink:href="#DejaVuSans-69" transform="translate(291.894531 0)"/>
     <use xlink:href="#DejaVuSans-6e" transform="translate(319.677734 0)"/>
     <use xlink:href="#DejaVuSans-65" transform="translate(383.056641 0)"/>
     <use xlink:href="#DejaVuSans-64" transform="translate(444.580078 0)"/>
     <use xlink:href="#DejaVuSans-20" transform="translate(508.056641 0)"/>
     <use xlink:href="#DejaVuSans-4d" transform="translate(539.84375 0)"/>
     <use xlink:href="#DejaVuSans-43" transform="translate(626.123047 0)"/>
     <use xlink:href="#DejaVuSans-44" transform="translate(695.947266 0)"/>
     <use xlink:href="#DejaVuSans-20" transform="translate(772.949219 0)"/>
     <use xlink:href="#DejaVuSans-73" transform="translate(804.736328 0)"/>
     <use xlink:href="#DejaVuSans-70" transform="translate(856.835938 0)"/>
     <use xlink:href="#DejaVuSans-65" transform="translate(920.3125 0)"/>
     <use xlink:href="#DejaVuSans-63" transform="translate(981.835938 0)"/>
     <use xlink:href="#DejaVuSans-74" transform="translate(1036.816406 0)"/>
     <use xlink:href="#DejaVuSans-72" transform="translate(1076.025391 0)"/>
     <use xlink:href="#DejaVuSans-61" transform="translate(1117.138672 0)"/>
    </g>
   </g>
   <g id="legend_1">
    <g id="patch_7">
     <path d="M 629.683438 52.203125 
L 699.760938 52.203125 
Q 701.360938 52.203125 701.360938 50.603125 
L 701.360938 27.918125 
Q 701.360938 26.318125 699.760938 26.318125 
L 629.683438 26.318125 
Q 628.083438 26.318125 628.083438 27.918125 
L 628.083438 50.603125 
Q 628.083438 52.203125 629.683438 52.203125 
z
" style="fill: #ffffff; opacity: 0.8; stroke: #cccccc; stroke-linejoin: miter"/>
    </g>
    <g id="line2d_14">
     <path d="M 631.283438 32.796875 
L 639.283438 32.796875 
L 647.283438 32.796875 
" style="fill: none; stroke: #1f77b4; stroke-width: 1.2; stroke-linecap: square"/>
    </g>
    <g id="text_14">
     <!-- molecule A -->
     <g transform="translate(653.683438 35.596875) scale(0.08 -0.08)">
      <defs>
       <path id="DejaVuSans-41" d="M 2188 4044 
L 1331 1722 
L 3047 1722 
L 2188 4044 
z
M 1831 4666 
L 2547 4666 
L 4325 0 
L 3669 0 
L 3244 1197 
L 1141 1197 
L 716 0 
L 50 0 
L 1831 4666 
z
" transform="scale(0.015625)"/>
      </defs>
      <use xlink:href="#DejaVuSans-6d"/>
      <use xlink:href="#DejaVuSans-6f" transform="translate(97.412109 0)"/>
      <use xlink:href="#DejaVuSans-6c" transform="translate(158.59375 0)"/>
      <use xlink:href="#DejaVuSans-65" transform="translate(186.376953 0)"/>
      <use xlink:href="#DejaVuSans-63" transform="translate(247.900391 0)"/>
      <use xlink:href="#DejaVuSans-75" transform="translate(302.880859 0)"/>
      <use xlink:href="#DejaVuSans-6c" transform="translate(366.259766 0)"/>
      <use xlink:href="#DejaVuSans-65" transform="translate(394.042969 0)"/>
      <use xlink:href="#DejaVuSans-20" transform="translate(455.566406 0)"/>
      <use xlink:href="#DejaVuSans-41" transform="translate(487.353516 0)"/>
     </g>
    </g>
    <g id="line2d_15">
     <path d="M 631.283438 44.539375 
L 639.283438 44.539375 
L 647.283438 44.539375 
" style="fill: none; stroke: #ff7f0e; stroke-width: 1.2; stroke-linecap: square"/>
    </g>
    <g id="text_15">
     <!-- molecule B -->
     <g transform="translate(653.683438 47.339375) scale(0.08 -0.08)">
      <defs>
       <path id="DejaVuSans-42" d="M 1259 2228 
L 1259 519 
L 2272 519 
Q 2781 519 3026 730 
Q 3272 941 3272 1375 
Q 3272 1813 3026 2020 
Q 2781 2228 2272 2228 
L 1259 2228 
z
M 1259 4147 
L 1259 2741 
L 2194 2741 
Q 2656 2741 2882 2914 
Q 3109 3088 3109 3444 
Q 3109 3797 2882 3972 
Q 2656 4147 2194 4147 
L 1259 4147 
z
M 628 4666 
L 2241 4666 
Q 2963 4666 3353 4366 
Q 3744 4066 3744 3513 
Q 3744 3084 3544 2831 
Q 3344 2578 2956 2516 
Q 3422 2416 3680 2098 
Q 3938 1781 3938 1306 
Q 3938 681 3513 340 
Q 3088 0 2303 0 
L 628 0 
L 628 4666 
z
" transform="scale(0.015625)"/>
      </defs>
      <use xlink:href="#DejaVuSans-6d"/>
      <use xlink:href="#DejaVuSans-6f" transform="translate(97.412109 0)"/>
      <use xlink:href="#DejaVuSans-6c" transform="translate(158.59375 0)"/>
      <use xlink:href="#DejaVuSans-65" transform="translate(186.376953 0)"/>
      <use xlink:href="#DejaVuSans-63" transform="translate(247.900391 0)"/>
      <use xlink:href="#DejaVuSans-75" transform="translate(302.880859 0)"/>
      <use xlink:href="#DejaVuSans-6c" transform="translate(366.259766 0)"/>
      <use xlink:href="#DejaVuSans-65" transform="translate(394.042969 0)"/>
      <use xlink:href="#DejaVuSans-20" transform="translate(455.566406 0)"/>
      <use xlink:href="#DejaVuSans-42" transform="translate(487.353516 0)"/>
     </g>
    </g>
   </g>
  </g>
 </g>
 <defs>
  <clipPath id="pd2aace8cab">
   <rect x="52.160938" y="22.318125" width="653.2" height="363.16"/>
  </clipPath>
 </defs>
</svg>
