<?xml version="1.0" encoding="utf-8" standalone="no"?>
<!DOCTYPE svg PUBLIC "-//W3C//DTD SVG 1.1//EN"
  "http://www.w3.org/Graphics/SVG/1.1/DTD/svg11.dtd">
<svg xmlns:xlink="http://www.w3.org/1999/xlink" width="718.923438pt" height="595.50025pt" viewBox="0 0 718.923438 595.50025" xmlns="http://www.w3.org/2000/svg" version="1.1">
 <metadata>
  <rdf:RDF xmlns:dc="http://purl.org/dc/elements/1.1/" xmlns:cc="http://creativecommons.org/ns#" xmlns:rdf="http://www.w3.org/1999/02/22-rdf-syntax-ns#">
   <cc:Work>
    <dc:type rdf:resource="http://purl.org/dc/dcmitype/StillImage"/>
    <dc:date>2026-07-08T20:55:32.961353</dc:date>
    <dc:format>image/svg+xml</dc:format>
    <dc:creator>
     <cc:Agent>
      <dc:title>Matplotlib v3.10.8, https://matplotlib.org/</dc:title>
     </cc:Agent>
    </dc:creator>
   </cc:Work>
  </rdf:RDF>
 </metadata>
 <defs>
  <style type="text/css">*{stroke-linejoin: round; stroke-linecap: butt}</style>
 </defs>
 <g id="figure_1">
  <g id="patch_1">
   <path d="M 0 595.50025 
L 718.923438 595.50025 
L 718.923438 0 
L 0 0 
z
" style="fill: #ffffff"/>
  </g>
  <g id="axes_1">
   <g id="patch_2">
    <path d="M 58.523438 196.224 
L 711.723438 196.224 
L 711.723438 33.198118 
L 58.523438 33.198118 
z
" style="fill: #ffffff"/>
   </g>
   <g id="matplotlib.axis_1">
    <g id="xtick_1">
     <g id="line2d_1">
      <defs>
       <path id="m13bc4deb40" d="M 0 0 
L 0 3.5 
" style="stroke: #000000; stroke-width: 0.8"/>
      </defs>
      <g>
       <use xlink:href="#m13bc4deb40" x="123.843438" y="196.224" style="stroke: #000000; stroke-width: 0.8"/>
      </g>
     </g>
    </g>
    <g id="xtick_2">
     <g id="line2d_2">
      <g>
       <use xlink:href="#m13bc4deb40" x="254.483438" y="196.224" style="stroke: #000000; stroke-width: 0.8"/>
      </g>
     </g>
    </g>
    <g id="xtick_3">
     <g id="line2d_3">
      <g>
       <use xlink:href="#m13bc4deb40" x="385.123438" y="196.224" style="stroke: #000000; stroke-width: 0.8"/>
      </g>
     </g>
    </g>
    <g id="xtick_4">
     <g id="line2d_4">
      <g>
       <use xlink:href="#m13bc4deb40" x="515.763438" y="196.224" style="stroke: #000000; stroke-width: 0.8"/>
      </g>
     </g>
    </g>
    <g id="xtick_5">
     <g id="line2d_5">
      <g>
       <use xlink:href="#m13bc4deb40" x="646.403438" y="196.224" style="stroke: #000000; stroke-width: 0.8"/>
      </g>
     </g>
    </g>
   </g>
   <g id="matplotlib.axis_2">
    <g id="ytick_1">
     <g id="line2d_6">
      <defs>
       <path id="m3241fc6ce3" d="M 0 0 
L -3.5 0 
" style="stroke: #000000; stroke-width: 0.8"/>
      </defs>
      <g>
       <use xlink:href="#m3241fc6ce3" x="58.523438" y="188.813733" style="stroke: #000000; stroke-width: 0.8"/>
      </g>
     </g>
     <g id="text_1">
      <!-- 0.0 -->
      <g transform="translate(35.620313 192.612951) scale(0.1 -0.1)">
       <defs>
        <path id="DejaVuSans-30" d="M 2034 4250 
Q 1547 4250 1301 3770 
Q 1056 3291 1056 2328 
Q 1056 1369 1301 889 
Q 1547 409 2034 409 
Q 2525 409 2770 889 
Q 3016 1369 3016 2328 
Q 3016 3291 2770 3770 
Q 2525 4250 2034 4250 
z
M 2034 4750 
Q 2819 4750 3233 4129 
Q 3647 3509 3647 2328 
Q 3647 1150 3233 529 
Q 2819 -91 2034 -91 
Q 1250 -91 836 529 
Q 422 1150 422 2328 
Q 422 3509 836 4129 
Q 1250 4750 2034 4750 
z
" transform="scale(0.015625)"/>
        <path id="DejaVuSans-2e" d="M 684 794 
L 1344 794 
L 1344 0 
L 684 0 
L 684 794 
z
" transform="scale(0.015625)"/>
       </defs>
       <use xlink:href="#DejaVuSans-30"/>
       <use xlink:href="#DejaVuSans-2e" transform="translate(63.623047 0)"/>
       <use xlink:href="#DejaVuSans-30" transform="translate(95.410156 0)"/>
      </g>
     </g>
    </g>
    <g id="ytick_2">
     <g id="line2d_7">
      <g>
       <use xlink:href="#m3241fc6ce3" x="58.523438" y="159.214685" style="stroke: #000000; stroke-width: 0.8"/>
      </g>
     </g>
     <g id="text_2">
      <!-- 0.2 -->
      <g transform="translate(35.620313 163.013904) scale(0.1 -0.1)">
       <defs>
        <path id="DejaVuSans-32" d="M 1228 531 
L 3431 531 
L 3431 0 
L 469 0 
L 469 531 
Q 828 903 1448 1529 
Q 2069 2156 2228 2338 
Q 2531 2678 2651 2914 
Q 2772 3150 2772 3378 
Q 2772 3750 2511 3984 
Q 2250 4219 1831 4219 
Q 1534 4219 1204 4116 
Q 875 4013 500 3803 
L 500 4441 
Q 881 4594 1212 4672 
Q 1544 4750 1819 4750 
Q 2544 4750 2975 4387 
Q 3406 4025 3406 3419 
Q 3406 3131 3298 2873 
Q 3191 2616 2906 2266 
Q 2828 2175 2409 1742 
Q 1991 1309 1228 531 
z
" transform="scale(0.015625)"/>
       </defs>
       <use xlink:href="#DejaVuSans-30"/>
       <use xlink:href="#DejaVuSans-2e" transform="translate(63.623047 0)"/>
       <use xlink:href="#DejaVuSans-32" transform="translate(95.410156 0)"/>
      </g>
     </g>
    </g>
    <g id="ytick_3">
     <g id="line2d_8">
      <g>
       <use xlink:href="#m3241fc6ce3" x="58.523438" y="129.615638" style="stroke: #000000; stroke-width: 0.8"/>
      </g>
     </g>
     <g id="text_3">
      <!-- 0.4 -->
      <g transform="translate(35.620313 133.414856) scale(0.1 -0.1)">
       <defs>
        <path id="DejaVuSans-34" d="M 2419 4116 
L 825 1625 
L 2419 1625 
L 2419 4116 
z
M 2253 4666 
L 3047 4666 
L 3047 1625 
L 3713 1625 
L 3713 1100 
L 3047 1100 
L 3047 0 
L 2419 0 
L 2419 1100 
L 313 1100 
L 313 1709 
L 2253 4666 
z
" transform="scale(0.015625)"/>
       </defs>
       <use xlink:href="#DejaVuSans-30"/>
       <use xlink:href="#DejaVuSans-2e" transform="translate(63.623047 0)"/>
       <use xlink:href="#DejaVuSans-34" transform="translate(95.410156 0)"/>
      </g>
     </g>
    </g>
    <g id="ytick_4">
     <g id="line2d_9">
      <g>
       <use xlink:href="#m3241fc6ce3" x="58.523438" y="100.01659" style="stroke: #000000; stroke-width: 0.8"/>
      </g>
     </g>
     <g id="text_4">
      <!-- 0.6 -->
      <g transform="translate(35.620313 103.815809) scale(0.1 -0.1)">
       <defs>
        <path id="DejaVuSans-36" d="M 2113 2584 
Q 1688 2584 1439 2293 
Q 1191 2003 1191 1497 
Q 1191 994 1439 701 
Q 1688 409 2113 409 
Q 2538 409 2786 701 
Q 3034 994 3034 1497 
Q 3034 2003 2786 2293 
Q 2538 2584 2113 2584 
z
M 3366 4563 
L 3366 3988 
Q 3128 4100 2886 4159 
Q 2644 4219 2406 4219 
Q 1781 4219 1451 3797 
Q 1122 3375 1075 2522 
Q 1259 2794 1537 2939 
Q 1816 3084 2150 3084 
Q 2853 3084 3261 2657 
Q 3669 2231 3669 1497 
Q 3669 778 3244 343 
Q 2819 -91 2113 -91 
Q 1303 -91 875 529 
Q 447 1150 447 2328 
Q 447 3434 972 4092 
Q 1497 4750 2381 4750 
Q 2619 4750 2861 4703 
Q 3103 4656 3366 4563 
z
" transform="scale(0.015625)"/>
       </defs>
       <use xlink:href="#DejaVuSans-30"/>
       <use xlink:href="#DejaVuSans-2e" transform="translate(63.623047 0)"/>
       <use xlink:href="#DejaVuSans-36" transform="translate(95.410156 0)"/>
      </g>
     </g>
    </g>
    <g id="ytick_5">
     <g id="line2d_10">
      <g>
       <use xlink:href="#m3241fc6ce3" x="58.523438" y="70.417543" style="stroke: #000000; stroke-width: 0.8"/>
      </g>
     </g>
     <g id="text_5">
      <!-- 0.8 -->
      <g transform="translate(35.620313 74.216762) scale(0.1 -0.1)">
       <defs>
        <path id="DejaVuSans-38" d="M 2034 2216 
Q 1584 2216 1326 1975 
Q 1069 1734 1069 1313 
Q 1069 891 1326 650 
Q 1584 409 2034 409 
Q 2484 409 2743 651 
Q 3003 894 3003 1313 
Q 3003 1734 2745 1975 
Q 2488 2216 2034 2216 
z
M 1403 2484 
Q 997 2584 770 2862 
Q 544 3141 544 3541 
Q 544 4100 942 4425 
Q 1341 4750 2034 4750 
Q 2731 4750 3128 4425 
Q 3525 4100 3525 3541 
Q 3525 3141 3298 2862 
Q 3072 2584 2669 2484 
Q 3125 2378 3379 2068 
Q 3634 1759 3634 1313 
Q 3634 634 3220 271 
Q 2806 -91 2034 -91 
Q 1263 -91 848 271 
Q 434 634 434 1313 
Q 434 1759 690 2068 
Q 947 2378 1403 2484 
z
M 1172 3481 
Q 1172 3119 1398 2916 
Q 1625 2713 2034 2713 
Q 2441 2713 2670 2916 
Q 2900 3119 2900 3481 
Q 2900 3844 2670 4047 
Q 2441 4250 2034 4250 
Q 1625 4250 1398 4047 
Q 1172 3844 1172 3481 
z
" transform="scale(0.015625)"/>
       </defs>
       <use xlink:href="#DejaVuSans-30"/>
       <use xlink:href="#DejaVuSans-2e" transform="translate(63.623047 0)"/>
       <use xlink:href="#DejaVuSans-38" transform="translate(95.410156 0)"/>
      </g>
     </g>
    </g>
    <g id="ytick_6">
     <g id="line2d_11">
      <g>
       <use xlink:href="#m3241fc6ce3" x="58.523438" y="40.818495" style="stroke: #000000; stroke-width: 0.8"/>
      </g>
     </g>
     <g id="text_6">
      <!-- 1.0 -->
      <g transform="translate(35.620313 44.617714) scale(0.1 -0.1)">
       <defs>
        <path id="DejaVuSans-31" d="M 794 531 
L 1825 531 
L 1825 4091 
L 703 3866 
L 703 4441 
L 1819 4666 
L 2450 4666 
L 2450 531 
L 3481 531 
L 3481 0 
L 794 0 
L 794 531 
z
" transform="scale(0.015625)"/>
       </defs>
       <use xlink:href="#DejaVuSans-31"/>
       <use xlink:href="#DejaVuSans-2e" transform="translate(63.623047 0)"/>
       <use xlink:href="#DejaVuSans-30" transform="translate(95.410156 0)"/>
      </g>
     </g>
    </g>
    <g id="text_7">
     <!-- Absorption intensity (arb. units) -->
     <g transform="translate(29.540625 194.296215) rotate(-90) scale(0.1 -0.1)">
      <defs>
       <path id="DejaVuSans-41" d="M 2188 4044 
L 1331 1722 
L 3047 1722 
L 2188 4044 
z
M 1831 4666 
L 2547 4666 
L 4325 0 
L 3669 0 
L 3244 1197 
L 1141 1197 
L 716 0 
L 50 0 
L 1831 4666 
z
" transform="scale(0.015625)"/>
       <path id="DejaVuSans-62" d="M 3116 1747 
Q 3116 2381 2855 2742 
Q 2594 3103 2138 3103 
Q 1681 3103 1420 2742 
Q 1159 2381 1159 1747 
Q 1159 1113 1420 752 
Q 1681 391 2138 391 
Q 2594 391 2855 752 
Q 3116 1113 3116 1747 
z
M 1159 2969 
Q 1341 3281 1617 3432 
Q 1894 3584 2278 3584 
Q 2916 3584 3314 3078 
Q 3713 2572 3713 1747 
Q 3713 922 3314 415 
Q 2916 -91 2278 -91 
Q 1894 -91 1617 61 
Q 1341 213 1159 525 
L 1159 0 
L 581 0 
L 581 4863 
L 1159 4863 
L 1159 2969 
z
" transform="scale(0.015625)"/>
       <path id="DejaVuSans-73" d="M 2834 3397 
L 2834 2853 
Q 2591 2978 2328 3040 
Q 2066 3103 1784 3103 
Q 1356 3103 1142 2972 
Q 928 2841 928 2578 
Q 928 2378 1081 2264 
Q 1234 2150 1697 2047 
L 1894 2003 
Q 2506 1872 2764 1633 
Q 3022 1394 3022 966 
Q 3022 478 2636 193 
Q 2250 -91 1575 -91 
Q 1294 -91 989 -36 
Q 684 19 347 128 
L 347 722 
Q 666 556 975 473 
Q 1284 391 1588 391 
Q 1994 391 2212 530 
Q 2431 669 2431 922 
Q 2431 1156 2273 1281 
Q 2116 1406 1581 1522 
L 1381 1569 
Q 847 1681 609 1914 
Q 372 2147 372 2553 
Q 372 3047 722 3315 
Q 1072 3584 1716 3584 
Q 2034 3584 2315 3537 
Q 2597 3491 2834 3397 
z
" transform="scale(0.015625)"/>
       <path id="DejaVuSans-6f" d="M 1959 3097 
Q 1497 3097 1228 2736 
Q 959 2375 959 1747 
Q 959 1119 1226 758 
Q 1494 397 1959 397 
Q 2419 397 2687 759 
Q 2956 1122 2956 1747 
Q 2956 2369 2687 2733 
Q 2419 3097 1959 3097 
z
M 1959 3584 
Q 2709 3584 3137 3096 
Q 3566 2609 3566 1747 
Q 3566 888 3137 398 
Q 2709 -91 1959 -91 
Q 1206 -91 779 398 
Q 353 888 353 1747 
Q 353 2609 779 3096 
Q 1206 3584 1959 3584 
z
" transform="scale(0.015625)"/>
       <path id="DejaVuSans-72" d="M 2631 2963 
Q 2534 3019 2420 3045 
Q 2306 3072 2169 3072 
Q 1681 3072 1420 2755 
Q 1159 2438 1159 1844 
L 1159 0 
L 581 0 
L 581 3500 
L 1159 3500 
L 1159 2956 
Q 1341 3275 1631 3429 
Q 1922 3584 2338 3584 
Q 2397 3584 2469 3576 
Q 2541 3569 2628 3553 
L 2631 2963 
z
" transform="scale(0.015625)"/>
       <path id="DejaVuSans-70" d="M 1159 525 
L 1159 -1331 
L 581 -1331 
L 581 3500 
L 1159 3500 
L 1159 2969 
Q 1341 3281 1617 3432 
Q 1894 3584 2278 3584 
Q 2916 3584 3314 3078 
Q 3713 2572 3713 1747 
Q 3713 922 3314 415 
Q 2916 -91 2278 -91 
Q 1894 -91 1617 61 
Q 1341 213 1159 525 
z
M 3116 1747 
Q 3116 2381 2855 2742 
Q 2594 3103 2138 3103 
Q 1681 3103 1420 2742 
Q 1159 2381 1159 1747 
Q 1159 1113 1420 752 
Q 1681 391 2138 391 
Q 2594 391 2855 752 
Q 3116 1113 3116 1747 
z
" transform="scale(0.015625)"/>
       <path id="DejaVuSans-74" d="M 1172 4494 
L 1172 3500 
L 2356 3500 
L 2356 3053 
L 1172 3053 
L 1172 1153 
Q 1172 725 1289 603 
Q 1406 481 1766 481 
L 2356 481 
L 2356 0 
L 1766 0 
Q 1100 0 847 248 
Q 594 497 594 1153 
L 594 3053 
L 172 3053 
L 172 3500 
L 594 3500 
L 594 4494 
L 1172 4494 
z
" transform="scale(0.015625)"/>
       <path id="DejaVuSans-69" d="M 603 3500 
L 1178 3500 
L 1178 0 
L 603 0 
L 603 3500 
z
M 603 4863 
L 1178 4863 
L 1178 4134 
L 603 4134 
L 603 4863 
z
" transform="scale(0.015625)"/>
       <path id="DejaVuSans-6e" d="M 3513 2113 
L 3513 0 
L 2938 0 
L 2938 2094 
Q 2938 2591 2744 2837 
Q 2550 3084 2163 3084 
Q 1697 3084 1428 2787 
Q 1159 2491 1159 1978 
L 1159 0 
L 581 0 
L 581 3500 
L 1159 3500 
L 1159 2956 
Q 1366 3272 1645 3428 
Q 1925 3584 2291 3584 
Q 2894 3584 3203 3211 
Q 3513 2838 3513 2113 
z
" transform="scale(0.015625)"/>
       <path id="DejaVuSans-20" transform="scale(0.015625)"/>
       <path id="DejaVuSans-65" d="M 3597 1894 
L 3597 1613 
L 953 1613 
Q 991 1019 1311 708 
Q 1631 397 2203 397 
Q 2534 397 2845 478 
Q 3156 559 3463 722 
L 3463 178 
Q 3153 47 2828 -22 
Q 2503 -91 2169 -91 
Q 1331 -91 842 396 
Q 353 884 353 1716 
Q 353 2575 817 3079 
Q 1281 3584 2069 3584 
Q 2775 3584 3186 3129 
Q 3597 2675 3597 1894 
z
M 3022 2063 
Q 3016 2534 2758 2815 
Q 2500 3097 2075 3097 
Q 1594 3097 1305 2825 
Q 1016 2553 972 2059 
L 3022 2063 
z
" transform="scale(0.015625)"/>
       <path id="DejaVuSans-79" d="M 2059 -325 
Q 1816 -950 1584 -1140 
Q 1353 -1331 966 -1331 
L 506 -1331 
L 506 -850 
L 844 -850 
Q 1081 -850 1212 -737 
Q 1344 -625 1503 -206 
L 1606 56 
L 191 3500 
L 800 3500 
L 1894 763 
L 2988 3500 
L 3597 3500 
L 2059 -325 
z
" transform="scale(0.015625)"/>
       <path id="DejaVuSans-28" d="M 1984 4856 
Q 1566 4138 1362 3434 
Q 1159 2731 1159 2009 
Q 1159 1288 1364 580 
Q 1569 -128 1984 -844 
L 1484 -844 
Q 1016 -109 783 600 
Q 550 1309 550 2009 
Q 550 2706 781 3412 
Q 1013 4119 1484 4856 
L 1984 4856 
z
" transform="scale(0.015625)"/>
       <path id="DejaVuSans-61" d="M 2194 1759 
Q 1497 1759 1228 1600 
Q 959 1441 959 1056 
Q 959 750 1161 570 
Q 1363 391 1709 391 
Q 2188 391 2477 730 
Q 2766 1069 2766 1631 
L 2766 1759 
L 2194 1759 
z
M 3341 1997 
L 3341 0 
L 2766 0 
L 2766 531 
Q 2569 213 2275 61 
Q 1981 -91 1556 -91 
Q 1019 -91 701 211 
Q 384 513 384 1019 
Q 384 1609 779 1909 
Q 1175 2209 1959 2209 
L 2766 2209 
L 2766 2266 
Q 2766 2663 2505 2880 
Q 2244 3097 1772 3097 
Q 1472 3097 1187 3025 
Q 903 2953 641 2809 
L 641 3341 
Q 956 3463 1253 3523 
Q 1550 3584 1831 3584 
Q 2591 3584 2966 3190 
Q 3341 2797 3341 1997 
z
" transform="scale(0.015625)"/>
       <path id="DejaVuSans-75" d="M 544 1381 
L 544 3500 
L 1119 3500 
L 1119 1403 
Q 1119 906 1312 657 
Q 1506 409 1894 409 
Q 2359 409 2629 706 
Q 2900 1003 2900 1516 
L 2900 3500 
L 3475 3500 
L 3475 0 
L 2900 0 
L 2900 538 
Q 2691 219 2414 64 
Q 2138 -91 1772 -91 
Q 1169 -91 856 284 
Q 544 659 544 1381 
z
M 1991 3584 
L 1991 3584 
z
" transform="scale(0.015625)"/>
       <path id="DejaVuSans-29" d="M 513 4856 
L 1013 4856 
Q 1481 4119 1714 3412 
Q 1947 2706 1947 2009 
Q 1947 1309 1714 600 
Q 1481 -109 1013 -844 
L 513 -844 
Q 928 -128 1133 580 
Q 1338 1288 1338 2009 
Q 1338 2731 1133 3434 
Q 928 4138 513 4856 
z
" transform="scale(0.015625)"/>
      </defs>
      <use xlink:href="#DejaVuSans-41"/>
      <use xlink:href="#DejaVuSans-62" transform="translate(68.408203 0)"/>
      <use xlink:href="#DejaVuSans-73" transform="translate(131.884766 0)"/>
      <use xlink:href="#DejaVuSans-6f" transform="translate(183.984375 0)"/>
      <use xlink:href="#DejaVuSans-72" transform="translate(245.166016 0)"/>
      <use xlink:href="#DejaVuSans-70" transform="translate(286.279297 0)"/>
      <use xlink:href="#DejaVuSans-74" transform="translate(349.755859 0)"/>
      <use xlink:href="#DejaVuSans-69" transform="translate(388.964844 0)"/>
      <use xlink:href="#DejaVuSans-6f" transform="translate(416.748047 0)"/>
      <use xlink:href="#DejaVuSans-6e" transform="translate(477.929688 0)"/>
      <use xlink:href="#DejaVuSans-20" transform="translate(541.308594 0)"/>
      <use xlink:href="#DejaVuSans-69" transform="translate(573.095703 0)"/>
      <use xlink:href="#DejaVuSans-6e" transform="translate(600.878906 0)"/>
      <use xlink:href="#DejaVuSans-74" transform="translate(664.257812 0)"/>
      <use xlink:href="#DejaVuSans-65" transform="translate(703.466797 0)"/>
      <use xlink:href="#DejaVuSans-6e" transform="translate(764.990234 0)"/>
      <use xlink:href="#DejaVuSans-73" transform="translate(828.369141 0)"/>
      <use xlink:href="#DejaVuSans-69" transform="translate(880.46875 0)"/>
      <use xlink:href="#DejaVuSans-74" transform="translate(908.251953 0)"/>
      <use xlink:href="#DejaVuSans-79" transform="translate(947.460938 0)"/>
      <use xlink:href="#DejaVuSans-20" transform="translate(1006.640625 0)"/>
      <use xlink:href="#DejaVuSans-28" transform="translate(1038.427734 0)"/>
      <use xlink:href="#DejaVuSans-61" transform="translate(1077.441406 0)"/>
      <use xlink:href="#DejaVuSans-72" transform="translate(1138.720703 0)"/>
      <use xlink:href="#DejaVuSans-62" transform="translate(1179.833984 0)"/>
      <use xlink:href="#DejaVuSans-2e" transform="translate(1243.310547 0)"/>
      <use xlink:href="#DejaVuSans-20" transform="translate(1275.097656 0)"/>
      <use xlink:href="#DejaVuSans-75" transform="translate(1306.884766 0)"/>
      <use xlink:href="#DejaVuSans-6e" transform="translate(1370.263672 0)"/>
      <use xlink:href="#DejaVuSans-69" transform="translate(1433.642578 0)"/>
      <use xlink:href="#DejaVuSans-74" transform="translate(1461.425781 0)"/>
      <use xlink:href="#DejaVuSans-73" transform="translate(1500.634766 0)"/>
      <use xlink:href="#DejaVuSans-29" transform="translate(1552.734375 0)"/>
     </g>
    </g>
   </g>
   <g id="line2d_12">
    <path d="M 58.523438 188.747835 
L 72.240638 188.545725 
L 80.732237 188.218468 
L 87.264238 187.753572 
L 92.489838 187.169625 
L 97.062237 186.440184 
L 100.981437 185.602406 
L 104.900637 184.518516 
L 108.166638 183.388387 
L 111.432638 182.015318 
L 114.698638 180.362386 
L 117.311437 178.812632 
L 119.924238 177.038919 
L 122.537038 175.021182 
L 125.149837 172.739899 
L 127.762638 170.176614 
L 130.375438 167.314527 
L 132.988238 164.139111 
L 135.601037 160.63879 
L 138.213838 156.805623 
L 140.826637 152.635983 
L 144.092638 146.95337 
L 147.358638 140.762677 
L 150.624638 134.094312 
L 154.543837 125.528998 
L 159.116238 114.907042 
L 165.648238 99.033243 
L 172.833437 81.62579 
L 176.752638 72.649999 
L 180.018637 65.681646 
L 182.631437 60.544279 
L 185.244238 55.871181 
L 187.857037 51.727315 
L 189.816637 49.00241 
L 191.776238 46.6306 
L 193.735837 44.631328 
L 195.695437 43.021085 
L 197.001837 42.170421 
L 198.308238 41.501751 
L 199.614638 41.017497 
L 200.921038 40.719376 
L 202.227437 40.608385 
L 203.533838 40.684804 
L 204.840237 40.948181 
L 206.146638 41.397339 
L 207.453037 42.030387 
L 208.759438 42.844726 
L 210.719037 44.398771 
L 212.678637 46.339246 
L 214.638237 48.649036 
L 216.597838 51.30805 
L 218.557438 54.293497 
L 221.170238 58.738034 
L 223.783037 63.652598 
L 227.049037 70.349295 
L 230.968238 79.005508 
L 236.193837 91.179203 
L 245.338637 112.592126 
L 249.257837 121.250368 
L 253.177038 129.34395 
L 256.443037 135.562353 
L 259.709038 141.241146 
L 262.321838 145.368257 
L 264.934637 149.110848 
L 267.547437 152.461517 
L 270.160238 155.418184 
L 272.773038 157.983477 
L 275.385838 160.164095 
L 277.345438 161.553087 
L 279.305037 162.736649 
L 281.264638 163.720838 
L 283.224238 164.512303 
L 285.183837 165.11816 
L 287.143437 165.545877 
L 289.756238 165.852405 
L 292.369038 165.874598 
L 294.981838 165.631227 
L 297.594637 165.140919 
L 300.207437 164.421948 
L 302.820237 163.492094 
L 306.086237 162.059349 
L 309.352238 160.356087 
L 312.618237 158.412951 
L 316.537438 155.8056 
L 320.456638 152.943032 
L 325.029038 149.342431 
L 330.907838 144.409628 
L 340.052638 136.386245 
L 349.197438 128.430094 
L 355.076238 123.611885 
L 359.648638 120.137086 
L 363.567837 117.403337 
L 367.487038 114.936292 
L 370.753038 113.109898 
L 374.019037 111.512027 
L 377.285037 110.159137 
L 380.551037 109.065317 
L 383.817038 108.242056 
L 387.083037 107.69807 
L 389.695837 107.467954 
L 392.308638 107.421917 
L 394.921437 107.560283 
L 397.534238 107.882123 
L 400.800238 108.538998 
L 404.066237 109.472141 
L 407.332238 110.671783 
L 410.598237 112.125476 
L 413.864237 113.818308 
L 417.130237 115.733162 
L 421.049438 118.297126 
L 424.968638 121.117408 
L 429.541037 124.680389 
L 434.766637 129.033824 
L 441.951837 135.339271 
L 460.241438 151.547296 
L 466.120237 156.405104 
L 471.345837 160.463425 
L 476.571438 164.237478 
L 481.143838 167.286038 
L 485.716237 170.086939 
L 490.288637 172.636159 
L 494.861038 174.935077 
L 499.433438 176.989702 
L 504.005837 178.80987 
L 508.578238 180.408419 
L 513.803837 181.983347 
L 519.029438 183.313294 
L 524.255037 184.424281 
L 530.133838 185.445003 
L 536.665837 186.336862 
L 543.851037 187.07643 
L 551.689437 187.656685 
L 560.834237 188.111948 
L 572.591837 188.4595 
L 588.268638 188.681182 
L 614.396638 188.79225 
L 699.312638 188.813721 
L 711.070238 188.81373 
L 711.070238 188.81373 
" clip-path="url(#p11804d36d4)" style="fill: none; stroke: #1f77b4; stroke-width: 1.5; stroke-linecap: square"/>
   </g>
   <g id="line2d_13">
    <path d="M 58.523438 188.813733 
L 711.723438 188.813733 
" clip-path="url(#p11804d36d4)" style="fill: none; stroke-dasharray: 2.96,1.28; stroke-dashoffset: 0; stroke: #1f77b4; stroke-width: 0.8"/>
   </g>
   <g id="line2d_14">
    <defs>
     <path id="mc08ced311b" d="M 0 3 
C 0.795609 3 1.55874 2.683901 2.12132 2.12132 
C 2.683901 1.55874 3 0.795609 3 0 
C 3 -0.795609 2.683901 -1.55874 2.12132 -2.12132 
C 1.55874 -2.683901 0.795609 -3 0 -3 
C -0.795609 -3 -1.55874 -2.683901 -2.12132 -2.12132 
C -2.683901 -1.55874 -3 -0.795609 -3 0 
C -3 0.795609 -2.683901 1.55874 -2.12132 2.12132 
C -1.55874 2.683901 -0.795609 3 0 3 
z
" style="stroke: #ff7f0e"/>
    </defs>
    <g clip-path="url(#p11804d36d4)">
     <use xlink:href="#mc08ced311b" x="202.227437" y="40.608385" style="fill: #ff7f0e; stroke: #ff7f0e"/>
    </g>
   </g>
   <g id="line2d_15">
    <defs>
     <path id="m09948ed6c2" d="M 0 3 
C 0.795609 3 1.55874 2.683901 2.12132 2.12132 
C 2.683901 1.55874 3 0.795609 3 0 
C 3 -0.795609 2.683901 -1.55874 2.12132 -2.12132 
C 1.55874 -2.683901 0.795609 -3 0 -3 
C -0.795609 -3 -1.55874 -2.683901 -2.12132 -2.12132 
C -2.683901 -1.55874 -3 -0.795609 -3 0 
C -3 0.795609 -2.683901 1.55874 -2.12132 2.12132 
C -1.55874 2.683901 -0.795609 3 0 3 
z
" style="stroke: #2ca02c"/>
    </defs>
    <g clip-path="url(#p11804d36d4)">
     <use xlink:href="#m09948ed6c2" x="391.655437" y="107.41613" style="fill: #2ca02c; stroke: #2ca02c"/>
    </g>
   </g>
   <g id="patch_3">
    <path d="M 58.523438 196.224 
L 58.523438 33.198118 
" style="fill: none; stroke: #000000; stroke-width: 0.8; stroke-linejoin: miter; stroke-linecap: square"/>
   </g>
   <g id="patch_4">
    <path d="M 711.723438 196.224 
L 711.723438 33.198118 
" style="fill: none; stroke: #000000; stroke-width: 0.8; stroke-linejoin: miter; stroke-linecap: square"/>
   </g>
   <g id="patch_5">
    <path d="M 58.523438 196.224 
L 711.723438 196.224 
" style="fill: none; stroke: #000000; stroke-width: 0.8; stroke-linejoin: miter; stroke-linecap: square"/>
   </g>
   <g id="patch_6">
    <path d="M 58.523438 33.198118 
L 711.723438 33.198118 
" style="fill: none; stroke: #000000; stroke-width: 0.8; stroke-linejoin: miter; stroke-linecap: square"/>
   </g>
   <g id="text_8">
    <!-- 360 nm -->
    <g transform="translate(206.227437 36.608385) scale(0.07 -0.07)">
     <defs>
      <path id="DejaVuSans-33" d="M 2597 2516 
Q 3050 2419 3304 2112 
Q 3559 1806 3559 1356 
Q 3559 666 3084 287 
Q 2609 -91 1734 -91 
Q 1441 -91 1130 -33 
Q 819 25 488 141 
L 488 750 
Q 750 597 1062 519 
Q 1375 441 1716 441 
Q 2309 441 2620 675 
Q 2931 909 2931 1356 
Q 2931 1769 2642 2001 
Q 2353 2234 1838 2234 
L 1294 2234 
L 1294 2753 
L 1863 2753 
Q 2328 2753 2575 2939 
Q 2822 3125 2822 3475 
Q 2822 3834 2567 4026 
Q 2313 4219 1838 4219 
Q 1578 4219 1281 4162 
Q 984 4106 628 3988 
L 628 4550 
Q 988 4650 1302 4700 
Q 1616 4750 1894 4750 
Q 2613 4750 3031 4423 
Q 3450 4097 3450 3541 
Q 3450 3153 3228 2886 
Q 3006 2619 2597 2516 
z
" transform="scale(0.015625)"/>
      <path id="DejaVuSans-6d" d="M 3328 2828 
Q 3544 3216 3844 3400 
Q 4144 3584 4550 3584 
Q 5097 3584 5394 3201 
Q 5691 2819 5691 2113 
L 5691 0 
L 5113 0 
L 5113 2094 
Q 5113 2597 4934 2840 
Q 4756 3084 4391 3084 
Q 3944 3084 3684 2787 
Q 3425 2491 3425 1978 
L 3425 0 
L 2847 0 
L 2847 2094 
Q 2847 2600 2669 2842 
Q 2491 3084 2119 3084 
Q 1678 3084 1418 2786 
Q 1159 2488 1159 1978 
L 1159 0 
L 581 0 
L 581 3500 
L 1159 3500 
L 1159 2956 
Q 1356 3278 1631 3431 
Q 1906 3584 2284 3584 
Q 2666 3584 2933 3390 
Q 3200 3197 3328 2828 
z
" transform="scale(0.015625)"/>
     </defs>
     <use xlink:href="#DejaVuSans-33"/>
     <use xlink:href="#DejaVuSans-36" transform="translate(63.623047 0)"/>
     <use xlink:href="#DejaVuSans-30" transform="translate(127.246094 0)"/>
     <use xlink:href="#DejaVuSans-20" transform="translate(190.869141 0)"/>
     <use xlink:href="#DejaVuSans-6e" transform="translate(222.65625 0)"/>
     <use xlink:href="#DejaVuSans-6d" transform="translate(286.035156 0)"/>
    </g>
   </g>
   <g id="text_9">
    <!-- 505 nm -->
    <g transform="translate(395.655437 103.41613) scale(0.07 -0.07)">
     <defs>
      <path id="DejaVuSans-35" d="M 691 4666 
L 3169 4666 
L 3169 4134 
L 1269 4134 
L 1269 2991 
Q 1406 3038 1543 3061 
Q 1681 3084 1819 3084 
Q 2600 3084 3056 2656 
Q 3513 2228 3513 1497 
Q 3513 744 3044 326 
Q 2575 -91 1722 -91 
Q 1428 -91 1123 -41 
Q 819 9 494 109 
L 494 744 
Q 775 591 1075 516 
Q 1375 441 1709 441 
Q 2250 441 2565 725 
Q 2881 1009 2881 1497 
Q 2881 1984 2565 2268 
Q 2250 2553 1709 2553 
Q 1456 2553 1204 2497 
Q 953 2441 691 2322 
L 691 4666 
z
" transform="scale(0.015625)"/>
     </defs>
     <use xlink:href="#DejaVuSans-35"/>
     <use xlink:href="#DejaVuSans-30" transform="translate(63.623047 0)"/>
     <use xlink:href="#DejaVuSans-35" transform="translate(127.246094 0)"/>
     <use xlink:href="#DejaVuSans-20" transform="translate(190.869141 0)"/>
     <use xlink:href="#DejaVuSans-6e" transform="translate(222.65625 0)"/>
     <use xlink:href="#DejaVuSans-6d" transform="translate(286.035156 0)"/>
    </g>
   </g>
   <g id="legend_1">
    <g id="patch_7">
     <path d="M 636.062188 51.340618 
L 706.123438 51.340618 
Q 707.723438 51.340618 707.723438 49.740618 
L 707.723438 38.798118 
Q 707.723438 37.198118 706.123438 37.198118 
L 636.062188 37.198118 
Q 634.462188 37.198118 634.462188 38.798118 
L 634.462188 49.740618 
Q 634.462188 51.340618 636.062188 51.340618 
z
" style="fill: #ffffff; opacity: 0.8; stroke: #cccccc; stroke-linejoin: miter"/>
    </g>
    <g id="line2d_16">
     <path d="M 637.662188 43.676868 
L 645.662188 43.676868 
L 653.662188 43.676868 
" style="fill: none; stroke: #1f77b4; stroke-width: 1.5; stroke-linecap: square"/>
    </g>
    <g id="text_10">
     <!-- molecule A -->
     <g transform="translate(660.062188 46.476868) scale(0.08 -0.08)">
      <defs>
       <path id="DejaVuSans-6c" d="M 603 4863 
L 1178 4863 
L 1178 0 
L 603 0 
L 603 4863 
z
" transform="scale(0.015625)"/>
       <path id="DejaVuSans-63" d="M 3122 3366 
L 3122 2828 
Q 2878 2963 2633 3030 
Q 2388 3097 2138 3097 
Q 1578 3097 1268 2742 
Q 959 2388 959 1747 
Q 959 1106 1268 751 
Q 1578 397 2138 397 
Q 2388 397 2633 464 
Q 2878 531 3122 666 
L 3122 134 
Q 2881 22 2623 -34 
Q 2366 -91 2075 -91 
Q 1284 -91 818 406 
Q 353 903 353 1747 
Q 353 2603 823 3093 
Q 1294 3584 2113 3584 
Q 2378 3584 2631 3529 
Q 2884 3475 3122 3366 
z
" transform="scale(0.015625)"/>
      </defs>
      <use xlink:href="#DejaVuSans-6d"/>
      <use xlink:href="#DejaVuSans-6f" transform="translate(97.412109 0)"/>
      <use xlink:href="#DejaVuSans-6c" transform="translate(158.59375 0)"/>
      <use xlink:href="#DejaVuSans-65" transform="translate(186.376953 0)"/>
      <use xlink:href="#DejaVuSans-63" transform="translate(247.900391 0)"/>
      <use xlink:href="#DejaVuSans-75" transform="translate(302.880859 0)"/>
      <use xlink:href="#DejaVuSans-6c" transform="translate(366.259766 0)"/>
      <use xlink:href="#DejaVuSans-65" transform="translate(394.042969 0)"/>
      <use xlink:href="#DejaVuSans-20" transform="translate(455.566406 0)"/>
      <use xlink:href="#DejaVuSans-41" transform="translate(487.353516 0)"/>
     </g>
    </g>
   </g>
  </g>
  <g id="axes_2">
   <g id="patch_8">
    <path d="M 58.523438 377.084 
L 711.723438 377.084 
L 711.723438 214.058118 
L 58.523438 214.058118 
z
" style="fill: #ffffff"/>
   </g>
   <g id="matplotlib.axis_3">
    <g id="xtick_6">
     <g id="line2d_17">
      <g>
       <use xlink:href="#m13bc4deb40" x="123.843438" y="377.084" style="stroke: #000000; stroke-width: 0.8"/>
      </g>
     </g>
    </g>
    <g id="xtick_7">
     <g id="line2d_18">
      <g>
       <use xlink:href="#m13bc4deb40" x="254.483438" y="377.084" style="stroke: #000000; stroke-width: 0.8"/>
      </g>
     </g>
    </g>
    <g id="xtick_8">
     <g id="line2d_19">
      <g>
       <use xlink:href="#m13bc4deb40" x="385.123438" y="377.084" style="stroke: #000000; stroke-width: 0.8"/>
      </g>
     </g>
    </g>
    <g id="xtick_9">
     <g id="line2d_20">
      <g>
       <use xlink:href="#m13bc4deb40" x="515.763438" y="377.084" style="stroke: #000000; stroke-width: 0.8"/>
      </g>
     </g>
    </g>
    <g id="xtick_10">
     <g id="line2d_21">
      <g>
       <use xlink:href="#m13bc4deb40" x="646.403438" y="377.084" style="stroke: #000000; stroke-width: 0.8"/>
      </g>
     </g>
    </g>
   </g>
   <g id="matplotlib.axis_4">
    <g id="ytick_7">
     <g id="line2d_22">
      <g>
       <use xlink:href="#m3241fc6ce3" x="58.523438" y="370.794335" style="stroke: #000000; stroke-width: 0.8"/>
      </g>
     </g>
     <g id="text_11">
      <!-- −0.75 -->
      <g transform="translate(20.878125 374.593553) scale(0.1 -0.1)">
       <defs>
        <path id="DejaVuSans-2212" d="M 678 2272 
L 4684 2272 
L 4684 1741 
L 678 1741 
L 678 2272 
z
" transform="scale(0.015625)"/>
        <path id="DejaVuSans-37" d="M 525 4666 
L 3525 4666 
L 3525 4397 
L 1831 0 
L 1172 0 
L 2766 4134 
L 525 4134 
L 525 4666 
z
" transform="scale(0.015625)"/>
       </defs>
       <use xlink:href="#DejaVuSans-2212"/>
       <use xlink:href="#DejaVuSans-30" transform="translate(83.789062 0)"/>
       <use xlink:href="#DejaVuSans-2e" transform="translate(147.412109 0)"/>
       <use xlink:href="#DejaVuSans-37" transform="translate(179.199219 0)"/>
       <use xlink:href="#DejaVuSans-35" transform="translate(242.822266 0)"/>
      </g>
     </g>
    </g>
    <g id="ytick_8">
     <g id="line2d_23">
      <g>
       <use xlink:href="#m3241fc6ce3" x="58.523438" y="349.372186" style="stroke: #000000; stroke-width: 0.8"/>
      </g>
     </g>
     <g id="text_12">
      <!-- −0.50 -->
      <g transform="translate(20.878125 353.171404) scale(0.1 -0.1)">
       <use xlink:href="#DejaVuSans-2212"/>
       <use xlink:href="#DejaVuSans-30" transform="translate(83.789062 0)"/>
       <use xlink:href="#DejaVuSans-2e" transform="translate(147.412109 0)"/>
       <use xlink:href="#DejaVuSans-35" transform="translate(179.199219 0)"/>
       <use xlink:href="#DejaVuSans-30" transform="translate(242.822266 0)"/>
      </g>
     </g>
    </g>
    <g id="ytick_9">
     <g id="line2d_24">
      <g>
       <use xlink:href="#m3241fc6ce3" x="58.523438" y="327.950037" style="stroke: #000000; stroke-width: 0.8"/>
      </g>
     </g>
     <g id="text_13">
      <!-- −0.25 -->
      <g transform="translate(20.878125 331.749255) scale(0.1 -0.1)">
       <use xlink:href="#DejaVuSans-2212"/>
       <use xlink:href="#DejaVuSans-30" transform="translate(83.789062 0)"/>
       <use xlink:href="#DejaVuSans-2e" transform="translate(147.412109 0)"/>
       <use xlink:href="#DejaVuSans-32" transform="translate(179.199219 0)"/>
       <use xlink:href="#DejaVuSans-35" transform="translate(242.822266 0)"/>
      </g>
     </g>
    </g>
    <g id="ytick_10">
     <g id="line2d_25">
      <g>
       <use xlink:href="#m3241fc6ce3" x="58.523438" y="306.527888" style="stroke: #000000; stroke-width: 0.8"/>
      </g>
     </g>
     <g id="text_14">
      <!-- 0.00 -->
      <g transform="translate(29.257813 310.327107) scale(0.1 -0.1)">
       <use xlink:href="#DejaVuSans-30"/>
       <use xlink:href="#DejaVuSans-2e" transform="translate(63.623047 0)"/>
       <use xlink:href="#DejaVuSans-30" transform="translate(95.410156 0)"/>
       <use xlink:href="#DejaVuSans-30" transform="translate(159.033203 0)"/>
      </g>
     </g>
    </g>
    <g id="ytick_11">
     <g id="line2d_26">
      <g>
       <use xlink:href="#m3241fc6ce3" x="58.523438" y="285.105739" style="stroke: #000000; stroke-width: 0.8"/>
      </g>
     </g>
     <g id="text_15">
      <!-- 0.25 -->
      <g transform="translate(29.257813 288.904958) scale(0.1 -0.1)">
       <use xlink:href="#DejaVuSans-30"/>
       <use xlink:href="#DejaVuSans-2e" transform="translate(63.623047 0)"/>
       <use xlink:href="#DejaVuSans-32" transform="translate(95.410156 0)"/>
       <use xlink:href="#DejaVuSans-35" transform="translate(159.033203 0)"/>
      </g>
     </g>
    </g>
    <g id="ytick_12">
     <g id="line2d_27">
      <g>
       <use xlink:href="#m3241fc6ce3" x="58.523438" y="263.68359" style="stroke: #000000; stroke-width: 0.8"/>
      </g>
     </g>
     <g id="text_16">
      <!-- 0.50 -->
      <g transform="translate(29.257813 267.482809) scale(0.1 -0.1)">
       <use xlink:href="#DejaVuSans-30"/>
       <use xlink:href="#DejaVuSans-2e" transform="translate(63.623047 0)"/>
       <use xlink:href="#DejaVuSans-35" transform="translate(95.410156 0)"/>
       <use xlink:href="#DejaVuSans-30" transform="translate(159.033203 0)"/>
      </g>
     </g>
    </g>
    <g id="ytick_13">
     <g id="line2d_28">
      <g>
       <use xlink:href="#m3241fc6ce3" x="58.523438" y="242.261441" style="stroke: #000000; stroke-width: 0.8"/>
      </g>
     </g>
     <g id="text_17">
      <!-- 0.75 -->
      <g transform="translate(29.257813 246.06066) scale(0.1 -0.1)">
       <use xlink:href="#DejaVuSans-30"/>
       <use xlink:href="#DejaVuSans-2e" transform="translate(63.623047 0)"/>
       <use xlink:href="#DejaVuSans-37" transform="translate(95.410156 0)"/>
       <use xlink:href="#DejaVuSans-35" transform="translate(159.033203 0)"/>
      </g>
     </g>
    </g>
    <g id="ytick_14">
     <g id="line2d_29">
      <g>
       <use xlink:href="#m3241fc6ce3" x="58.523438" y="220.839292" style="stroke: #000000; stroke-width: 0.8"/>
      </g>
     </g>
     <g id="text_18">
      <!-- 1.00 -->
      <g transform="translate(29.257813 224.638511) scale(0.1 -0.1)">
       <use xlink:href="#DejaVuSans-31"/>
       <use xlink:href="#DejaVuSans-2e" transform="translate(63.623047 0)"/>
       <use xlink:href="#DejaVuSans-30" transform="translate(95.410156 0)"/>
       <use xlink:href="#DejaVuSans-30" transform="translate(159.033203 0)"/>
      </g>
     </g>
    </g>
    <g id="text_19">
     <!-- CD intensity (arb. units) -->
     <g transform="translate(14.798438 355.431996) rotate(-90) scale(0.1 -0.1)">
      <defs>
       <path id="DejaVuSans-43" d="M 4122 4306 
L 4122 3641 
Q 3803 3938 3442 4084 
Q 3081 4231 2675 4231 
Q 1875 4231 1450 3742 
Q 1025 3253 1025 2328 
Q 1025 1406 1450 917 
Q 1875 428 2675 428 
Q 3081 428 3442 575 
Q 3803 722 4122 1019 
L 4122 359 
Q 3791 134 3420 21 
Q 3050 -91 2638 -91 
Q 1578 -91 968 557 
Q 359 1206 359 2328 
Q 359 3453 968 4101 
Q 1578 4750 2638 4750 
Q 3056 4750 3426 4639 
Q 3797 4528 4122 4306 
z
" transform="scale(0.015625)"/>
       <path id="DejaVuSans-44" d="M 1259 4147 
L 1259 519 
L 2022 519 
Q 2988 519 3436 956 
Q 3884 1394 3884 2338 
Q 3884 3275 3436 3711 
Q 2988 4147 2022 4147 
L 1259 4147 
z
M 628 4666 
L 1925 4666 
Q 3281 4666 3915 4102 
Q 4550 3538 4550 2338 
Q 4550 1131 3912 565 
Q 3275 0 1925 0 
L 628 0 
L 628 4666 
z
" transform="scale(0.015625)"/>
      </defs>
      <use xlink:href="#DejaVuSans-43"/>
      <use xlink:href="#DejaVuSans-44" transform="translate(69.824219 0)"/>
      <use xlink:href="#DejaVuSans-20" transform="translate(146.826172 0)"/>
      <use xlink:href="#DejaVuSans-69" transform="translate(178.613281 0)"/>
      <use xlink:href="#DejaVuSans-6e" transform="translate(206.396484 0)"/>
      <use xlink:href="#DejaVuSans-74" transform="translate(269.775391 0)"/>
      <use xlink:href="#DejaVuSans-65" transform="translate(308.984375 0)"/>
      <use xlink:href="#DejaVuSans-6e" transform="translate(370.507812 0)"/>
      <use xlink:href="#DejaVuSans-73" transform="translate(433.886719 0)"/>
      <use xlink:href="#DejaVuSans-69" transform="translate(485.986328 0)"/>
      <use xlink:href="#DejaVuSans-74" transform="translate(513.769531 0)"/>
      <use xlink:href="#DejaVuSans-79" transform="translate(552.978516 0)"/>
      <use xlink:href="#DejaVuSans-20" transform="translate(612.158203 0)"/>
      <use xlink:href="#DejaVuSans-28" transform="translate(643.945312 0)"/>
      <use xlink:href="#DejaVuSans-61" transform="translate(682.958984 0)"/>
      <use xlink:href="#DejaVuSans-72" transform="translate(744.238281 0)"/>
      <use xlink:href="#DejaVuSans-62" transform="translate(785.351562 0)"/>
      <use xlink:href="#DejaVuSans-2e" transform="translate(848.828125 0)"/>
      <use xlink:href="#DejaVuSans-20" transform="translate(880.615234 0)"/>
      <use xlink:href="#DejaVuSans-75" transform="translate(912.402344 0)"/>
      <use xlink:href="#DejaVuSans-6e" transform="translate(975.78125 0)"/>
      <use xlink:href="#DejaVuSans-69" transform="translate(1039.160156 0)"/>
      <use xlink:href="#DejaVuSans-74" transform="translate(1066.943359 0)"/>
      <use xlink:href="#DejaVuSans-73" transform="translate(1106.152344 0)"/>
      <use xlink:href="#DejaVuSans-29" transform="translate(1158.251953 0)"/>
     </g>
    </g>
   </g>
   <g id="line2d_30">
    <path d="M 58.523438 306.520235 
L 79.425837 306.392093 
L 88.570637 306.123215 
L 94.449437 305.753885 
L 99.675038 305.197947 
L 103.594238 304.574775 
L 107.513438 303.712449 
L 110.779437 302.763233 
L 114.045438 301.558588 
L 116.658237 300.380188 
L 119.271037 298.984957 
L 121.883837 297.349269 
L 124.496637 295.450836 
L 127.109437 293.269815 
L 129.722238 290.790026 
L 132.335037 288.000262 
L 134.947837 284.895615 
L 137.560638 281.478778 
L 140.826637 276.787103 
L 144.092638 271.670321 
L 148.011837 265.069234 
L 153.237438 255.776598 
L 160.422637 243.040732 
L 163.688638 237.684757 
L 166.301438 233.76176 
L 168.914237 230.254865 
L 170.873838 227.947115 
L 172.833437 225.950905 
L 174.793037 224.294344 
L 176.752638 223.001639 
L 178.059038 222.351947 
L 179.365438 221.877551 
L 180.671837 221.582143 
L 181.978237 221.468385 
L 183.284637 221.537887 
L 184.591037 221.791201 
L 185.897437 222.227816 
L 187.203838 222.846178 
L 188.510238 223.643704 
L 190.469837 225.167852 
L 192.429438 227.070863 
L 194.389038 229.332373 
L 196.348638 231.928163 
L 198.961437 235.861319 
L 201.574238 240.267532 
L 204.840237 246.322333 
L 208.759438 254.184786 
L 213.985038 265.253653 
L 224.436238 287.483948 
L 229.008638 296.677789 
L 233.581037 305.376775 
L 238.153438 313.554202 
L 242.725838 321.22702 
L 247.298237 328.431363 
L 251.870638 335.200303 
L 256.443037 341.54674 
L 260.362238 346.637856 
L 264.281438 351.375383 
L 267.547437 355.019239 
L 270.813438 358.349777 
L 274.079437 361.327697 
L 276.692238 363.428372 
L 279.305037 365.25585 
L 281.917838 366.79012 
L 284.530638 368.013004 
L 286.490238 368.716312 
L 288.449837 369.230186 
L 290.409437 369.550339 
L 292.369038 369.673733 
L 294.328637 369.598661 
L 296.288237 369.324804 
L 298.247838 368.853268 
L 300.207437 368.18658 
L 302.167037 367.328683 
L 304.779838 365.896749 
L 307.392638 364.150632 
L 310.005437 362.110246 
L 312.618237 359.798799 
L 315.884238 356.568092 
L 319.150237 353.009924 
L 323.069438 348.390697 
L 327.641838 342.651284 
L 335.480238 332.377675 
L 343.971837 321.340262 
L 349.197438 314.896443 
L 353.769838 309.588354 
L 358.342237 304.642231 
L 362.261437 300.715497 
L 366.180638 297.089896 
L 370.099837 293.770803 
L 374.019037 290.759334 
L 377.938237 288.0539 
L 381.857438 285.651446 
L 385.776637 283.54833 
L 389.695837 281.740824 
L 392.961838 280.457745 
L 396.227837 279.375285 
L 399.493837 278.491158 
L 402.759837 277.802742 
L 406.025838 277.306863 
L 409.291838 276.999579 
L 413.211037 276.872794 
L 417.130237 276.999786 
L 421.049438 277.367229 
L 424.968638 277.959002 
L 428.887838 278.756223 
L 433.460237 279.917251 
L 438.685837 281.502145 
L 444.564637 283.540972 
L 452.403037 286.529819 
L 471.345837 293.883849 
L 478.531038 296.369207 
L 485.063037 298.378608 
L 490.941838 299.960492 
L 496.820638 301.322091 
L 502.699438 302.469051 
L 509.231437 303.508728 
L 515.763437 304.327459 
L 522.948638 305.0103 
L 531.440237 305.580263 
L 541.238237 306.000606 
L 553.649037 306.292963 
L 571.285438 306.462283 
L 606.558237 306.524614 
L 711.070238 306.527888 
L 711.070238 306.527888 
" clip-path="url(#p9b5caa2d51)" style="fill: none; stroke: #1f77b4; stroke-width: 1.5; stroke-linecap: square"/>
   </g>
   <g id="line2d_31">
    <path d="M 58.523438 306.527888 
L 711.723438 306.527888 
" clip-path="url(#p9b5caa2d51)" style="fill: none; stroke-dasharray: 2.96,1.28; stroke-dashoffset: 0; stroke: #1f77b4; stroke-width: 0.8"/>
   </g>
   <g id="line2d_32">
    <g clip-path="url(#p9b5caa2d51)">
     <use xlink:href="#mc08ced311b" x="181.978237" y="221.468385" style="fill: #ff7f0e; stroke: #ff7f0e"/>
    </g>
   </g>
   <g id="line2d_33">
    <g clip-path="url(#p9b5caa2d51)">
     <use xlink:href="#m09948ed6c2" x="292.369038" y="369.673733" style="fill: #2ca02c; stroke: #2ca02c"/>
    </g>
   </g>
   <g id="line2d_34">
    <defs>
     <path id="mf2fdf0f3d3" d="M 0 3 
C 0.795609 3 1.55874 2.683901 2.12132 2.12132 
C 2.683901 1.55874 3 0.795609 3 0 
C 3 -0.795609 2.683901 -1.55874 2.12132 -2.12132 
C 1.55874 -2.683901 0.795609 -3 0 -3 
C -0.795609 -3 -1.55874 -2.683901 -2.12132 -2.12132 
C -2.683901 -1.55874 -3 -0.795609 -3 0 
C -3 0.795609 -2.683901 1.55874 -2.12132 2.12132 
C -1.55874 2.683901 -0.795609 3 0 3 
z
" style="stroke: #d62728"/>
    </defs>
    <g clip-path="url(#p9b5caa2d51)">
     <use xlink:href="#mf2fdf0f3d3" x="413.211037" y="276.872794" style="fill: #d62728; stroke: #d62728"/>
    </g>
   </g>
   <g id="patch_9">
    <path d="M 58.523438 377.084 
L 58.523438 214.058118 
" style="fill: none; stroke: #000000; stroke-width: 0.8; stroke-linejoin: miter; stroke-linecap: square"/>
   </g>
   <g id="patch_10">
    <path d="M 711.723438 377.084 
L 711.723438 214.058118 
" style="fill: none; stroke: #000000; stroke-width: 0.8; stroke-linejoin: miter; stroke-linecap: square"/>
   </g>
   <g id="patch_11">
    <path d="M 58.523438 377.084 
L 711.723438 377.084 
" style="fill: none; stroke: #000000; stroke-width: 0.8; stroke-linejoin: miter; stroke-linecap: square"/>
   </g>
   <g id="patch_12">
    <path d="M 58.523438 214.058118 
L 711.723438 214.058118 
" style="fill: none; stroke: #000000; stroke-width: 0.8; stroke-linejoin: miter; stroke-linecap: square"/>
   </g>
   <g id="text_20">
    <!-- 344 nm -->
    <g transform="translate(185.978237 217.468385) scale(0.07 -0.07)">
     <use xlink:href="#DejaVuSans-33"/>
     <use xlink:href="#DejaVuSans-34" transform="translate(63.623047 0)"/>
     <use xlink:href="#DejaVuSans-34" transform="translate(127.246094 0)"/>
     <use xlink:href="#DejaVuSans-20" transform="translate(190.869141 0)"/>
     <use xlink:href="#DejaVuSans-6e" transform="translate(222.65625 0)"/>
     <use xlink:href="#DejaVuSans-6d" transform="translate(286.035156 0)"/>
    </g>
   </g>
   <g id="text_21">
    <!-- 429 nm -->
    <g transform="translate(296.369038 365.673733) scale(0.07 -0.07)">
     <defs>
      <path id="DejaVuSans-39" d="M 703 97 
L 703 672 
Q 941 559 1184 500 
Q 1428 441 1663 441 
Q 2288 441 2617 861 
Q 2947 1281 2994 2138 
Q 2813 1869 2534 1725 
Q 2256 1581 1919 1581 
Q 1219 1581 811 2004 
Q 403 2428 403 3163 
Q 403 3881 828 4315 
Q 1253 4750 1959 4750 
Q 2769 4750 3195 4129 
Q 3622 3509 3622 2328 
Q 3622 1225 3098 567 
Q 2575 -91 1691 -91 
Q 1453 -91 1209 -44 
Q 966 3 703 97 
z
M 1959 2075 
Q 2384 2075 2632 2365 
Q 2881 2656 2881 3163 
Q 2881 3666 2632 3958 
Q 2384 4250 1959 4250 
Q 1534 4250 1286 3958 
Q 1038 3666 1038 3163 
Q 1038 2656 1286 2365 
Q 1534 2075 1959 2075 
z
" transform="scale(0.015625)"/>
     </defs>
     <use xlink:href="#DejaVuSans-34"/>
     <use xlink:href="#DejaVuSans-32" transform="translate(63.623047 0)"/>
     <use xlink:href="#DejaVuSans-39" transform="translate(127.246094 0)"/>
     <use xlink:href="#DejaVuSans-20" transform="translate(190.869141 0)"/>
     <use xlink:href="#DejaVuSans-6e" transform="translate(222.65625 0)"/>
     <use xlink:href="#DejaVuSans-6d" transform="translate(286.035156 0)"/>
    </g>
   </g>
   <g id="text_22">
    <!-- 521 nm -->
    <g transform="translate(417.211037 272.872794) scale(0.07 -0.07)">
     <use xlink:href="#DejaVuSans-35"/>
     <use xlink:href="#DejaVuSans-32" transform="translate(63.623047 0)"/>
     <use xlink:href="#DejaVuSans-31" transform="translate(127.246094 0)"/>
     <use xlink:href="#DejaVuSans-20" transform="translate(190.869141 0)"/>
     <use xlink:href="#DejaVuSans-6e" transform="translate(222.65625 0)"/>
     <use xlink:href="#DejaVuSans-6d" transform="translate(286.035156 0)"/>
    </g>
   </g>
   <g id="legend_2">
    <g id="patch_13">
     <path d="M 636.062188 232.200618 
L 706.123438 232.200618 
Q 707.723438 232.200618 707.723438 230.600618 
L 707.723438 219.658118 
Q 707.723438 218.058118 706.123438 218.058118 
L 636.062188 218.058118 
Q 634.462188 218.058118 634.462188 219.658118 
L 634.462188 230.600618 
Q 634.462188 232.200618 636.062188 232.200618 
z
" style="fill: #ffffff; opacity: 0.8; stroke: #cccccc; stroke-linejoin: miter"/>
    </g>
    <g id="line2d_35">
     <path d="M 637.662188 224.536868 
L 645.662188 224.536868 
L 653.662188 224.536868 
" style="fill: none; stroke: #1f77b4; stroke-width: 1.5; stroke-linecap: square"/>
    </g>
    <g id="text_23">
     <!-- molecule A -->
     <g transform="translate(660.062188 227.336868) scale(0.08 -0.08)">
      <use xlink:href="#DejaVuSans-6d"/>
      <use xlink:href="#DejaVuSans-6f" transform="translate(97.412109 0)"/>
      <use xlink:href="#DejaVuSans-6c" transform="translate(158.59375 0)"/>
      <use xlink:href="#DejaVuSans-65" transform="translate(186.376953 0)"/>
      <use xlink:href="#DejaVuSans-63" transform="translate(247.900391 0)"/>
      <use xlink:href="#DejaVuSans-75" transform="translate(302.880859 0)"/>
      <use xlink:href="#DejaVuSans-6c" transform="translate(366.259766 0)"/>
      <use xlink:href="#DejaVuSans-65" transform="translate(394.042969 0)"/>
      <use xlink:href="#DejaVuSans-20" transform="translate(455.566406 0)"/>
      <use xlink:href="#DejaVuSans-41" transform="translate(487.353516 0)"/>
     </g>
    </g>
   </g>
  </g>
  <g id="axes_3">
   <g id="patch_14">
    <path d="M 58.523438 557.944 
L 711.723438 557.944 
L 711.723438 394.918118 
L 58.523438 394.918118 
z
" style="fill: #ffffff"/>
   </g>
   <g id="matplotlib.axis_5">
    <g id="xtick_11">
     <g id="line2d_36">
      <g>
       <use xlink:href="#m13bc4deb40" x="123.843438" y="557.944" style="stroke: #000000; stroke-width: 0.8"/>
      </g>
     </g>
     <g id="text_24">
      <!-- 300 -->
      <g transform="translate(114.299688 572.542437) scale(0.1 -0.1)">
       <use xlink:href="#DejaVuSans-33"/>
       <use xlink:href="#DejaVuSans-30" transform="translate(63.623047 0)"/>
       <use xlink:href="#DejaVuSans-30" transform="translate(127.246094 0)"/>
      </g>
     </g>
    </g>
    <g id="xtick_12">
     <g id="line2d_37">
      <g>
       <use xlink:href="#m13bc4deb40" x="254.483438" y="557.944" style="stroke: #000000; stroke-width: 0.8"/>
      </g>
     </g>
     <g id="text_25">
      <!-- 400 -->
      <g transform="translate(244.939688 572.542437) scale(0.1 -0.1)">
       <use xlink:href="#DejaVuSans-34"/>
       <use xlink:href="#DejaVuSans-30" transform="translate(63.623047 0)"/>
       <use xlink:href="#DejaVuSans-30" transform="translate(127.246094 0)"/>
      </g>
     </g>
    </g>
    <g id="xtick_13">
     <g id="line2d_38">
      <g>
       <use xlink:href="#m13bc4deb40" x="385.123438" y="557.944" style="stroke: #000000; stroke-width: 0.8"/>
      </g>
     </g>
     <g id="text_26">
      <!-- 500 -->
      <g transform="translate(375.579688 572.542437) scale(0.1 -0.1)">
       <use xlink:href="#DejaVuSans-35"/>
       <use xlink:href="#DejaVuSans-30" transform="translate(63.623047 0)"/>
       <use xlink:href="#DejaVuSans-30" transform="translate(127.246094 0)"/>
      </g>
     </g>
    </g>
    <g id="xtick_14">
     <g id="line2d_39">
      <g>
       <use xlink:href="#m13bc4deb40" x="515.763438" y="557.944" style="stroke: #000000; stroke-width: 0.8"/>
      </g>
     </g>
     <g id="text_27">
      <!-- 600 -->
      <g transform="translate(506.219688 572.542437) scale(0.1 -0.1)">
       <use xlink:href="#DejaVuSans-36"/>
       <use xlink:href="#DejaVuSans-30" transform="translate(63.623047 0)"/>
       <use xlink:href="#DejaVuSans-30" transform="translate(127.246094 0)"/>
      </g>
     </g>
    </g>
    <g id="xtick_15">
     <g id="line2d_40">
      <g>
       <use xlink:href="#m13bc4deb40" x="646.403438" y="557.944" style="stroke: #000000; stroke-width: 0.8"/>
      </g>
     </g>
     <g id="text_28">
      <!-- 700 -->
      <g transform="translate(636.859688 572.542437) scale(0.1 -0.1)">
       <use xlink:href="#DejaVuSans-37"/>
       <use xlink:href="#DejaVuSans-30" transform="translate(63.623047 0)"/>
       <use xlink:href="#DejaVuSans-30" transform="translate(127.246094 0)"/>
      </g>
     </g>
    </g>
    <g id="text_29">
     <!-- Wavelength (nm) -->
     <g transform="translate(341.93125 586.220562) scale(0.1 -0.1)">
      <defs>
       <path id="DejaVuSans-57" d="M 213 4666 
L 850 4666 
L 1831 722 
L 2809 4666 
L 3519 4666 
L 4500 722 
L 5478 4666 
L 6119 4666 
L 4947 0 
L 4153 0 
L 3169 4050 
L 2175 0 
L 1381 0 
L 213 4666 
z
" transform="scale(0.015625)"/>
       <path id="DejaVuSans-76" d="M 191 3500 
L 800 3500 
L 1894 563 
L 2988 3500 
L 3597 3500 
L 2284 0 
L 1503 0 
L 191 3500 
z
" transform="scale(0.015625)"/>
       <path id="DejaVuSans-67" d="M 2906 1791 
Q 2906 2416 2648 2759 
Q 2391 3103 1925 3103 
Q 1463 3103 1205 2759 
Q 947 2416 947 1791 
Q 947 1169 1205 825 
Q 1463 481 1925 481 
Q 2391 481 2648 825 
Q 2906 1169 2906 1791 
z
M 3481 434 
Q 3481 -459 3084 -895 
Q 2688 -1331 1869 -1331 
Q 1566 -1331 1297 -1286 
Q 1028 -1241 775 -1147 
L 775 -588 
Q 1028 -725 1275 -790 
Q 1522 -856 1778 -856 
Q 2344 -856 2625 -561 
Q 2906 -266 2906 331 
L 2906 616 
Q 2728 306 2450 153 
Q 2172 0 1784 0 
Q 1141 0 747 490 
Q 353 981 353 1791 
Q 353 2603 747 3093 
Q 1141 3584 1784 3584 
Q 2172 3584 2450 3431 
Q 2728 3278 2906 2969 
L 2906 3500 
L 3481 3500 
L 3481 434 
z
" transform="scale(0.015625)"/>
       <path id="DejaVuSans-68" d="M 3513 2113 
L 3513 0 
L 2938 0 
L 2938 2094 
Q 2938 2591 2744 2837 
Q 2550 3084 2163 3084 
Q 1697 3084 1428 2787 
Q 1159 2491 1159 1978 
L 1159 0 
L 581 0 
L 581 4863 
L 1159 4863 
L 1159 2956 
Q 1366 3272 1645 3428 
Q 1925 3584 2291 3584 
Q 2894 3584 3203 3211 
Q 3513 2838 3513 2113 
z
" transform="scale(0.015625)"/>
      </defs>
      <use xlink:href="#DejaVuSans-57"/>
      <use xlink:href="#DejaVuSans-61" transform="translate(92.501953 0)"/>
      <use xlink:href="#DejaVuSans-76" transform="translate(153.78125 0)"/>
      <use xlink:href="#DejaVuSans-65" transform="translate(212.960938 0)"/>
      <use xlink:href="#DejaVuSans-6c" transform="translate(274.484375 0)"/>
      <use xlink:href="#DejaVuSans-65" transform="translate(302.267578 0)"/>
      <use xlink:href="#DejaVuSans-6e" transform="translate(363.791016 0)"/>
      <use xlink:href="#DejaVuSans-67" transform="translate(427.169922 0)"/>
      <use xlink:href="#DejaVuSans-74" transform="translate(490.646484 0)"/>
      <use xlink:href="#DejaVuSans-68" transform="translate(529.855469 0)"/>
      <use xlink:href="#DejaVuSans-20" transform="translate(593.234375 0)"/>
      <use xlink:href="#DejaVuSans-28" transform="translate(625.021484 0)"/>
      <use xlink:href="#DejaVuSans-6e" transform="translate(664.035156 0)"/>
      <use xlink:href="#DejaVuSans-6d" transform="translate(727.414062 0)"/>
      <use xlink:href="#DejaVuSans-29" transform="translate(824.826172 0)"/>
     </g>
    </g>
   </g>
   <g id="matplotlib.axis_6">
    <g id="ytick_15">
     <g id="line2d_41">
      <g>
       <use xlink:href="#m3241fc6ce3" x="58.523438" y="552.245593" style="stroke: #000000; stroke-width: 0.8"/>
      </g>
     </g>
     <g id="text_30">
      <!-- −0.4 -->
      <g transform="translate(27.240625 556.044811) scale(0.1 -0.1)">
       <use xlink:href="#DejaVuSans-2212"/>
       <use xlink:href="#DejaVuSans-30" transform="translate(83.789062 0)"/>
       <use xlink:href="#DejaVuSans-2e" transform="translate(147.412109 0)"/>
       <use xlink:href="#DejaVuSans-34" transform="translate(179.199219 0)"/>
      </g>
     </g>
    </g>
    <g id="ytick_16">
     <g id="line2d_42">
      <g>
       <use xlink:href="#m3241fc6ce3" x="58.523438" y="520.596205" style="stroke: #000000; stroke-width: 0.8"/>
      </g>
     </g>
     <g id="text_31">
      <!-- −0.2 -->
      <g transform="translate(27.240625 524.395424) scale(0.1 -0.1)">
       <use xlink:href="#DejaVuSans-2212"/>
       <use xlink:href="#DejaVuSans-30" transform="translate(83.789062 0)"/>
       <use xlink:href="#DejaVuSans-2e" transform="translate(147.412109 0)"/>
       <use xlink:href="#DejaVuSans-32" transform="translate(179.199219 0)"/>
      </g>
     </g>
    </g>
    <g id="ytick_17">
     <g id="line2d_43">
      <g>
       <use xlink:href="#m3241fc6ce3" x="58.523438" y="488.946818" style="stroke: #000000; stroke-width: 0.8"/>
      </g>
     </g>
     <g id="text_32">
      <!-- 0.0 -->
      <g transform="translate(35.620313 492.746037) scale(0.1 -0.1)">
       <use xlink:href="#DejaVuSans-30"/>
       <use xlink:href="#DejaVuSans-2e" transform="translate(63.623047 0)"/>
       <use xlink:href="#DejaVuSans-30" transform="translate(95.410156 0)"/>
      </g>
     </g>
    </g>
    <g id="ytick_18">
     <g id="line2d_44">
      <g>
       <use xlink:href="#m3241fc6ce3" x="58.523438" y="457.29743" style="stroke: #000000; stroke-width: 0.8"/>
      </g>
     </g>
     <g id="text_33">
      <!-- 0.2 -->
      <g transform="translate(35.620313 461.096649) scale(0.1 -0.1)">
       <use xlink:href="#DejaVuSans-30"/>
       <use xlink:href="#DejaVuSans-2e" transform="translate(63.623047 0)"/>
       <use xlink:href="#DejaVuSans-32" transform="translate(95.410156 0)"/>
      </g>
     </g>
    </g>
    <g id="ytick_19">
     <g id="line2d_45">
      <g>
       <use xlink:href="#m3241fc6ce3" x="58.523438" y="425.648043" style="stroke: #000000; stroke-width: 0.8"/>
      </g>
     </g>
     <g id="text_34">
      <!-- 0.4 -->
      <g transform="translate(35.620313 429.447262) scale(0.1 -0.1)">
       <use xlink:href="#DejaVuSans-30"/>
       <use xlink:href="#DejaVuSans-2e" transform="translate(63.623047 0)"/>
       <use xlink:href="#DejaVuSans-34" transform="translate(95.410156 0)"/>
      </g>
     </g>
    </g>
    <g id="text_35">
     <!-- MCD intensity (arb. units) -->
     <g transform="translate(21.160938 540.606059) rotate(-90) scale(0.1 -0.1)">
      <defs>
       <path id="DejaVuSans-4d" d="M 628 4666 
L 1569 4666 
L 2759 1491 
L 3956 4666 
L 4897 4666 
L 4897 0 
L 4281 0 
L 4281 4097 
L 3078 897 
L 2444 897 
L 1241 4097 
L 1241 0 
L 628 0 
L 628 4666 
z
" transform="scale(0.015625)"/>
      </defs>
      <use xlink:href="#DejaVuSans-4d"/>
      <use xlink:href="#DejaVuSans-43" transform="translate(86.279297 0)"/>
      <use xlink:href="#DejaVuSans-44" transform="translate(156.103516 0)"/>
      <use xlink:href="#DejaVuSans-20" transform="translate(233.105469 0)"/>
      <use xlink:href="#DejaVuSans-69" transform="translate(264.892578 0)"/>
      <use xlink:href="#DejaVuSans-6e" transform="translate(292.675781 0)"/>
      <use xlink:href="#DejaVuSans-74" transform="translate(356.054688 0)"/>
      <use xlink:href="#DejaVuSans-65" transform="translate(395.263672 0)"/>
      <use xlink:href="#DejaVuSans-6e" transform="translate(456.787109 0)"/>
      <use xlink:href="#DejaVuSans-73" transform="translate(520.166016 0)"/>
      <use xlink:href="#DejaVuSans-69" transform="translate(572.265625 0)"/>
      <use xlink:href="#DejaVuSans-74" transform="translate(600.048828 0)"/>
      <use xlink:href="#DejaVuSans-79" transform="translate(639.257812 0)"/>
      <use xlink:href="#DejaVuSans-20" transform="translate(698.4375 0)"/>
      <use xlink:href="#DejaVuSans-28" transform="translate(730.224609 0)"/>
      <use xlink:href="#DejaVuSans-61" transform="translate(769.238281 0)"/>
      <use xlink:href="#DejaVuSans-72" transform="translate(830.517578 0)"/>
      <use xlink:href="#DejaVuSans-62" transform="translate(871.630859 0)"/>
      <use xlink:href="#DejaVuSans-2e" transform="translate(935.107422 0)"/>
      <use xlink:href="#DejaVuSans-20" transform="translate(966.894531 0)"/>
      <use xlink:href="#DejaVuSans-75" transform="translate(998.681641 0)"/>
      <use xlink:href="#DejaVuSans-6e" transform="translate(1062.060547 0)"/>
      <use xlink:href="#DejaVuSans-69" transform="translate(1125.439453 0)"/>
      <use xlink:href="#DejaVuSans-74" transform="translate(1153.222656 0)"/>
      <use xlink:href="#DejaVuSans-73" transform="translate(1192.431641 0)"/>
      <use xlink:href="#DejaVuSans-29" transform="translate(1244.53125 0)"/>
     </g>
    </g>
   </g>
   <g id="line2d_46">
    <path d="M 58.523438 488.94443 
L 88.570637 488.824851 
L 98.368637 488.586228 
L 105.553838 488.196428 
L 110.779437 487.709638 
L 115.351837 487.073813 
L 119.271037 486.319189 
L 123.190238 485.317684 
L 126.456237 484.253449 
L 129.722238 482.942639 
L 132.988238 481.34864 
L 135.601037 479.845153 
L 138.213838 478.11963 
L 140.826637 476.156128 
L 143.439438 473.941141 
L 146.052238 471.464446 
L 148.665037 468.719974 
L 151.277837 465.706685 
L 154.543837 461.569979 
L 157.809837 457.045221 
L 161.729037 451.163371 
L 166.301438 443.818175 
L 180.018637 421.281553 
L 183.284637 416.51145 
L 185.897437 413.053381 
L 188.510238 409.984897 
L 190.469837 407.975865 
L 192.429438 406.243229 
L 194.389038 404.807429 
L 196.348638 403.685932 
L 198.308238 402.89291 
L 200.267838 402.439011 
L 201.574238 402.328385 
L 202.880638 402.372745 
L 204.187038 402.572437 
L 205.493438 402.927043 
L 207.453037 403.746654 
L 209.412638 404.904966 
L 211.372237 406.391358 
L 213.331837 408.191868 
L 215.291437 410.289507 
L 217.251037 412.664608 
L 219.863838 416.22481 
L 222.476638 420.182132 
L 225.742637 425.594399 
L 229.661838 432.610218 
L 234.887437 442.509063 
L 247.298237 466.241547 
L 252.523838 475.628759 
L 257.096237 483.384534 
L 261.668638 490.698425 
L 266.241038 497.59428 
L 270.813438 504.114888 
L 276.039037 511.165408 
L 281.264638 517.833657 
L 286.490238 524.130951 
L 291.062637 529.310109 
L 294.981838 533.462677 
L 298.901037 537.301168 
L 302.167037 540.219249 
L 305.433038 542.844003 
L 308.699038 545.13864 
L 311.311837 546.7125 
L 313.924637 548.034903 
L 316.537438 549.090312 
L 319.150237 549.865324 
L 321.763037 550.349104 
L 323.722637 550.515936 
L 325.682238 550.512254 
L 327.641838 550.336934 
L 329.601437 549.989939 
L 332.214238 549.262222 
L 334.827037 548.236842 
L 337.439838 546.922688 
L 340.052638 545.331836 
L 342.665438 543.479304 
L 345.278238 541.382746 
L 348.544237 538.449405 
L 351.810238 535.208894 
L 355.729438 530.979839 
L 360.301838 525.68149 
L 366.180638 518.495214 
L 382.510638 498.300736 
L 387.736237 492.253579 
L 392.961838 486.558435 
L 397.534238 481.899885 
L 402.106638 477.561628 
L 406.679037 473.54969 
L 411.251437 469.863191 
L 415.823837 466.497198 
L 420.396238 463.445129 
L 424.968638 460.700605 
L 428.887838 458.589118 
L 432.807037 456.69794 
L 436.726238 455.02625 
L 440.645438 453.574209 
L 444.564637 452.342673 
L 448.483837 451.332803 
L 452.403037 450.545608 
L 456.322237 449.981497 
L 460.241438 449.639822 
L 464.160637 449.518489 
L 468.079838 449.613635 
L 471.999037 449.919393 
L 475.918238 450.427754 
L 480.490638 451.263177 
L 485.063037 452.34054 
L 489.635438 453.636359 
L 494.861038 455.350547 
L 500.739838 457.524078 
L 507.925037 460.439821 
L 519.029438 465.237415 
L 532.093438 470.834201 
L 539.931837 473.95004 
L 547.117038 476.557137 
L 553.649037 478.685593 
L 560.181038 480.567991 
L 566.713038 482.201346 
L 573.245037 483.592719 
L 579.777037 484.756901 
L 586.962238 485.799305 
L 594.147437 486.622572 
L 602.639038 487.358082 
L 611.783838 487.920034 
L 622.888238 488.364627 
L 636.605437 488.67385 
L 655.548238 488.860277 
L 690.167837 488.939024 
L 711.070238 488.945316 
L 711.070238 488.945316 
" clip-path="url(#p94c927a0cc)" style="fill: none; stroke: #1f77b4; stroke-width: 1.5; stroke-linecap: square"/>
   </g>
   <g id="line2d_47">
    <path d="M 58.523438 488.946818 
L 711.723438 488.946818 
" clip-path="url(#p94c927a0cc)" style="fill: none; stroke-dasharray: 2.96,1.28; stroke-dashoffset: 0; stroke: #1f77b4; stroke-width: 0.8"/>
   </g>
   <g id="line2d_48">
    <g clip-path="url(#p94c927a0cc)">
     <use xlink:href="#mc08ced311b" x="201.574238" y="402.328385" style="fill: #ff7f0e; stroke: #ff7f0e"/>
    </g>
   </g>
   <g id="line2d_49">
    <g clip-path="url(#p94c927a0cc)">
     <use xlink:href="#m09948ed6c2" x="324.375838" y="550.533733" style="fill: #2ca02c; stroke: #2ca02c"/>
    </g>
   </g>
   <g id="line2d_50">
    <g clip-path="url(#p94c927a0cc)">
     <use xlink:href="#mf2fdf0f3d3" x="464.160637" y="449.518489" style="fill: #d62728; stroke: #d62728"/>
    </g>
   </g>
   <g id="patch_15">
    <path d="M 58.523438 557.944 
L 58.523438 394.918118 
" style="fill: none; stroke: #000000; stroke-width: 0.8; stroke-linejoin: miter; stroke-linecap: square"/>
   </g>
   <g id="patch_16">
    <path d="M 711.723438 557.944 
L 711.723438 394.918118 
" style="fill: none; stroke: #000000; stroke-width: 0.8; stroke-linejoin: miter; stroke-linecap: square"/>
   </g>
   <g id="patch_17">
    <path d="M 58.523438 557.944 
L 711.723438 557.944 
" style="fill: none; stroke: #000000; stroke-width: 0.8; stroke-linejoin: miter; stroke-linecap: square"/>
   </g>
   <g id="patch_18">
    <path d="M 58.523438 394.918118 
L 711.723438 394.918118 
" style="fill: none; stroke: #000000; stroke-width: 0.8; stroke-linejoin: miter; stroke-linecap: square"/>
   </g>
   <g id="text_36">
    <!-- 360 nm -->
    <g transform="translate(205.574238 398.328385) scale(0.07 -0.07)">
     <use xlink:href="#DejaVuSans-33"/>
     <use xlink:href="#DejaVuSans-36" transform="translate(63.623047 0)"/>
     <use xlink:href="#DejaVuSans-30" transform="translate(127.246094 0)"/>
     <use xlink:href="#DejaVuSans-20" transform="translate(190.869141 0)"/>
     <use xlink:href="#DejaVuSans-6e" transform="translate(222.65625 0)"/>
     <use xlink:href="#DejaVuSans-6d" transform="translate(286.035156 0)"/>
    </g>
   </g>
   <g id="text_37">
    <!-- 454 nm -->
    <g transform="translate(328.375838 546.533733) scale(0.07 -0.07)">
     <use xlink:href="#DejaVuSans-34"/>
     <use xlink:href="#DejaVuSans-35" transform="translate(63.623047 0)"/>
     <use xlink:href="#DejaVuSans-34" transform="translate(127.246094 0)"/>
     <use xlink:href="#DejaVuSans-20" transform="translate(190.869141 0)"/>
     <use xlink:href="#DejaVuSans-6e" transform="translate(222.65625 0)"/>
     <use xlink:href="#DejaVuSans-6d" transform="translate(286.035156 0)"/>
    </g>
   </g>
   <g id="text_38">
    <!-- 560 nm -->
    <g transform="translate(468.160637 445.518489) scale(0.07 -0.07)">
     <use xlink:href="#DejaVuSans-35"/>
     <use xlink:href="#DejaVuSans-36" transform="translate(63.623047 0)"/>
     <use xlink:href="#DejaVuSans-30" transform="translate(127.246094 0)"/>
     <use xlink:href="#DejaVuSans-20" transform="translate(190.869141 0)"/>
     <use xlink:href="#DejaVuSans-6e" transform="translate(222.65625 0)"/>
     <use xlink:href="#DejaVuSans-6d" transform="translate(286.035156 0)"/>
    </g>
   </g>
   <g id="legend_3">
    <g id="patch_19">
     <path d="M 636.062188 413.060618 
L 706.123438 413.060618 
Q 707.723438 413.060618 707.723438 411.460618 
L 707.723438 400.518118 
Q 707.723438 398.918118 706.123438 398.918118 
L 636.062188 398.918118 
Q 634.462188 398.918118 634.462188 400.518118 
L 634.462188 411.460618 
Q 634.462188 413.060618 636.062188 413.060618 
z
" style="fill: #ffffff; opacity: 0.8; stroke: #cccccc; stroke-linejoin: miter"/>
    </g>
    <g id="line2d_51">
     <path d="M 637.662188 405.396868 
L 645.662188 405.396868 
L 653.662188 405.396868 
" style="fill: none; stroke: #1f77b4; stroke-width: 1.5; stroke-linecap: square"/>
    </g>
    <g id="text_39">
     <!-- molecule A -->
     <g transform="translate(660.062188 408.196868) scale(0.08 -0.08)">
      <use xlink:href="#DejaVuSans-6d"/>
      <use xlink:href="#DejaVuSans-6f" transform="translate(97.412109 0)"/>
      <use xlink:href="#DejaVuSans-6c" transform="translate(158.59375 0)"/>
      <use xlink:href="#DejaVuSans-65" transform="translate(186.376953 0)"/>
      <use xlink:href="#DejaVuSans-63" transform="translate(247.900391 0)"/>
      <use xlink:href="#DejaVuSans-75" transform="translate(302.880859 0)"/>
      <use xlink:href="#DejaVuSans-6c" transform="translate(366.259766 0)"/>
      <use xlink:href="#DejaVuSans-65" transform="translate(394.042969 0)"/>
      <use xlink:href="#DejaVuSans-20" transform="translate(455.566406 0)"/>
      <use xlink:href="#DejaVuSans-41" transform="translate(487.353516 0)"/>
     </g>
    </g>
   </g>
  </g>
  <g id="text_40">
   <!-- molecule A -->
   <g transform="translate(329.1775 16.318125) scale(0.12 -0.12)">
    <use xlink:href="#DejaVuSans-6d"/>
    <use xlink:href="#DejaVuSans-6f" transform="translate(97.412109 0)"/>
    <use xlink:href="#DejaVuSans-6c" transform="translate(158.59375 0)"/>
    <use xlink:href="#DejaVuSans-65" transform="translate(186.376953 0)"/>
    <use xlink:href="#DejaVuSans-63" transform="translate(247.900391 0)"/>
    <use xlink:href="#DejaVuSans-75" transform="translate(302.880859 0)"/>
    <use xlink:href="#DejaVuSans-6c" transform="translate(366.259766 0)"/>
    <use xlink:href="#DejaVuSans-65" transform="translate(394.042969 0)"/>
    <use xlink:href="#DejaVuSans-20" transform="translate(455.566406 0)"/>
    <use xlink:href="#DejaVuSans-41" transform="translate(487.353516 0)"/>
   </g>
  </g>
 </g>
 <defs>
  <clipPath id="p11804d36d4">
   <rect x="58.523438" y="33.198118" width="653.2" height="163.025882"/>
  </clipPath>
  <clipPath id="p9b5caa2d51">
   <rect x="58.523438" y="214.058118" width="653.2" height="163.025882"/>
  </clipPath>
  <clipPath id="p94c927a0cc">
   <rect x="58.523438" y="394.918118" width="653.2" height="163.025882"/>
  </clipPath>
 </defs>
</svg>
